<svg width="250" height="307" viewBox="0 0 250 307" fill="none" xmlns="http://www.w3.org/2000/svg">
<g clip-path="url(#clip0_624_3578)">
<path fill-rule="evenodd" clip-rule="evenodd" d="M170.703 74.3258C179.115 96.772 168.465 122.337 142.595 147.13C112.895 175.596 63.2201 202.94 -0.21875 223.147V224.871C64.1154 204.522 114.579 176.845 144.735 147.944C172.928 120.923 183.448 92.7406 170.703 68.4917V74.3258ZM170.703 54.2041C172.186 55.7158 173.576 57.2667 174.869 58.8566C196.656 85.6277 187.297 118.613 154.148 150.383C122.275 180.93 68.499 210.246 -0.21875 231.591V233.306C69.3905 211.827 123.959 182.18 156.288 151.196C189.699 119.175 199.456 85.6068 177.139 58.1838C175.199 55.8005 173.05 53.5045 170.703 51.2961V54.2041ZM170.703 42.07C177.89 46.9458 183.958 52.3437 188.768 58.2539C211.722 86.4589 201.857 121.205 166.947 154.663C132.671 187.513 74.3467 219.009 -0.21875 241.595V243.301C75.2342 220.587 134.354 188.764 169.086 155.476C204.259 121.767 214.522 86.4381 191.037 57.5811C185.7 51.0235 178.86 45.0935 170.703 39.7995V42.07ZM170.703 32.6442C184.504 39.6859 195.633 48.0815 203.536 57.7918C227.688 87.4696 217.304 124.025 180.585 159.216C143.879 194.395 80.9546 228.096 0.480836 251.932C0.247659 252.001 0.0144635 252.07 -0.21875 252.139V253.837C0.385881 253.659 0.990389 253.481 1.59477 253.302C82.4201 229.361 145.73 195.484 182.724 160.029C219.706 124.586 230.488 87.4487 205.805 57.119C197.419 46.8142 185.498 37.983 170.703 30.656V32.6442ZM170.703 24.9314C192.076 33.5141 208.903 44.5834 219.859 58.0463C245.372 89.3948 234.398 128.001 195.627 165.159C156.869 202.305 90.4303 237.887 5.46587 263.054C3.57209 263.615 1.67715 264.168 -0.21875 264.714V266.404C2.04894 265.754 4.31523 265.094 6.5798 264.424C91.8958 239.153 158.72 203.394 197.766 165.973C236.8 128.563 248.172 89.3739 222.129 57.3736C210.705 43.3362 193.064 31.8896 170.703 23.1037V24.9314ZM170.703 19.0275C199.097 28.5328 221.211 41.6902 234.761 58.3405C261.512 91.2105 250.001 131.686 209.362 170.635C168.735 209.572 99.0952 246.867 10.0409 273.245C6.62425 274.257 3.20404 275.245 -0.21875 276.211V277.053C3.39006 276.038 6.99597 274.997 10.5978 273.93C189.058 221.069 289.927 124.396 235.896 58.0041C222.113 41.0687 199.583 27.7395 170.703 18.156V19.0275Z" fill="url(#paint0_linear_624_3578)"/>
</g>
<defs>
<linearGradient id="paint0_linear_624_3578" x1="-340.726" y1="291.875" x2="76.3037" y2="-121.11" gradientUnits="userSpaceOnUse">
<stop offset="0.276042" stop-color="#D9297D"/>
<stop offset="0.546875" stop-color="#F18520"/>
<stop offset="0.770833" stop-color="#2FCEFF"/>
<stop offset="0.979167" stop-color="#CCCCE7" stop-opacity="0"/>
</linearGradient>
<clipPath id="clip0_624_3578">
<rect width="250" height="307" fill="white"/>
</clipPath>
</defs>
</svg>