<svg width="675" height="308" viewBox="0 0 675 308" fill="none" xmlns="http://www.w3.org/2000/svg">
<g clip-path="url(#clip0_624_3580)">
<path fill-rule="evenodd" clip-rule="evenodd" d="M633.916 170.448C674.531 131.541 686.034 91.1106 659.3 58.2766C632.566 25.4424 572.48 6.20618 496.592 1.79153C420.727 -2.62174 329.283 7.80158 240.283 34.1509C151.283 60.5003 81.6863 97.7546 41.084 136.649C0.469127 175.555 -11.0344 215.986 15.6998 248.82C42.4342 281.654 102.52 300.891 178.409 305.305C254.273 309.718 345.717 299.295 434.717 272.946C523.717 246.596 593.314 209.342 633.916 170.448ZM620.19 164.978C658.937 127.861 669.904 89.2968 644.408 57.9827C618.911 26.6684 561.602 8.31766 489.203 4.10601C416.828 -0.104262 329.587 9.83956 244.674 34.9788C159.761 60.118 93.3633 95.6607 54.6286 132.766C15.8814 169.883 4.91421 208.448 30.4109 239.762C55.9077 271.076 113.217 289.427 185.615 293.638C257.99 297.849 345.232 287.905 430.145 262.766C515.057 237.626 581.455 202.084 620.19 164.978ZM622.328 165.791C583.306 203.172 516.522 238.891 431.258 264.134C345.994 289.377 258.285 299.397 185.373 295.156C112.484 290.916 54.1698 272.399 28.143 240.434C2.11604 208.468 13.4808 169.322 52.4905 131.954C91.5128 94.5729 158.297 58.8537 243.561 33.6104C328.825 8.36711 416.534 -1.65277 489.446 2.58875C562.334 6.82889 620.649 25.3454 646.676 57.3106C672.702 89.276 661.338 128.422 622.328 165.791ZM605.157 159.042C641.854 123.889 652.232 87.3737 628.094 57.7284C603.956 28.083 549.696 10.7045 481.129 6.71578C412.586 2.7284 329.958 12.1457 249.533 35.9563C169.109 59.7668 106.223 93.4301 69.5389 128.571C32.8423 163.724 22.464 200.239 46.6019 229.884C70.7399 259.53 125 276.908 193.567 280.897C262.11 284.884 344.738 275.467 425.163 251.656C505.587 227.846 568.473 194.183 605.157 159.042ZM607.295 159.854C570.323 195.27 507.052 229.11 426.276 253.025C345.5 276.939 262.405 286.433 193.324 282.414C124.267 278.397 69.0021 260.853 44.334 230.556C19.6659 200.26 30.4416 163.163 67.4007 127.759C104.372 92.3423 167.644 58.5024 248.42 34.5879C329.196 10.6733 412.291 1.1799 481.372 5.19851C550.428 9.21575 605.694 26.76 630.362 57.0564C655.03 87.3529 644.254 124.449 607.295 159.854ZM591.527 154.494C626.416 121.072 636.275 86.3642 613.335 58.19C590.395 30.0157 538.823 13.4943 473.634 9.70204C408.468 5.91115 329.907 14.8644 253.439 37.5036C176.971 60.1428 117.181 92.1494 82.3048 125.559C47.4159 158.98 37.5568 193.688 60.4969 221.862C83.4371 250.037 135.009 266.558 200.198 270.35C265.364 274.141 343.924 265.188 420.393 242.549C496.861 219.91 556.651 187.903 591.527 154.494ZM593.665 155.306C558.501 188.991 498.326 221.174 421.506 243.917C344.686 266.661 265.658 275.69 199.956 271.868C134.277 268.047 81.6992 251.36 58.229 222.535C34.7587 193.709 45.0153 158.419 80.1666 124.746C115.331 91.0616 175.506 58.8784 252.326 36.1352C329.146 13.3919 408.173 4.36264 473.876 8.18478C539.555 12.0055 592.133 28.6927 615.603 57.518C639.073 86.3433 628.816 121.633 593.665 155.306ZM578.736 150.218C611.865 118.483 621.219 85.5339 599.445 58.7921C577.671 32.0502 528.717 16.3633 466.816 12.7623C404.939 9.16276 330.339 17.6641 257.722 39.1628C185.106 60.6616 128.331 91.0552 95.215 122.778C62.0862 154.514 52.7326 187.463 74.5064 214.205C96.2803 240.947 145.235 256.633 207.136 260.234C269.013 263.834 343.613 255.333 416.229 233.834C488.845 212.335 545.62 181.942 578.736 150.218ZM580.875 151.031C547.471 183.029 490.31 213.599 417.342 235.202C344.375 256.805 269.307 265.382 206.893 261.752C144.503 258.122 94.5424 242.27 72.2385 214.877C49.9345 187.484 59.6855 153.953 93.0768 121.966C126.481 89.9673 183.641 59.3973 256.609 37.7944C329.577 16.1916 404.644 7.61426 467.058 11.2451C529.449 14.8745 579.409 30.7271 601.713 58.12C624.017 85.513 614.266 119.044 580.875 151.031ZM567.191 146.969C598.739 116.748 607.638 85.3784 586.912 59.9229C566.185 34.4673 519.581 19.5299 460.634 16.1007C401.71 12.6729 330.666 20.7684 261.509 41.2431C192.352 61.7177 138.284 90.6627 106.749 120.872C75.2004 151.093 66.3008 182.463 87.0273 207.918C107.754 233.374 154.358 248.311 213.305 251.74C272.229 255.168 343.273 247.073 412.43 226.598C481.587 206.123 535.655 177.178 567.191 146.969ZM569.329 147.781C537.505 178.266 483.052 207.388 413.544 227.966C344.035 248.545 272.524 256.717 213.063 253.258C153.626 249.8 106.016 234.697 84.7593 208.59C63.5026 182.483 72.7998 150.532 104.61 120.06C136.434 89.5749 190.887 60.4533 260.396 39.8747C329.904 19.296 401.415 11.1244 460.876 14.5834C520.313 18.0411 567.923 33.1443 589.18 59.2509C610.437 85.3576 601.139 117.309 569.329 147.781ZM660.434 57.9405C714.433 124.26 613.625 220.827 435.273 273.63C256.922 326.433 68.5646 315.475 14.5659 249.156C-39.4328 182.837 61.3751 86.2695 239.727 33.4667C418.078 -19.336 606.435 -8.37869 660.434 57.9405Z" fill="url(#paint0_linear_624_3580)"/>
</g>
<defs>
<linearGradient id="paint0_linear_624_3580" x1="84.1625" y1="291.555" x2="500.737" y2="-121.18" gradientUnits="userSpaceOnUse">
<stop offset="0.276042" stop-color="#D9297D"/>
<stop offset="0.546875" stop-color="#F18520"/>
<stop offset="0.770833" stop-color="#2FCEFF"/>
<stop offset="0.979167" stop-color="#CCCCE7" stop-opacity="0"/>
</linearGradient>
<clipPath id="clip0_624_3580">
<rect width="675" height="307" fill="white" transform="translate(0 0.0483398)"/>
</clipPath>
</defs>
</svg>