<svg width="675" height="158" viewBox="0 0 675 158" fill="none" xmlns="http://www.w3.org/2000/svg">
<g clip-path="url(#clip0_624_3579)">
<path fill-rule="evenodd" clip-rule="evenodd" d="M28.3123 -0.275635C28.1581 -0.275635 28.0097 -0.207412 27.9081 -0.0913574C-2.74956 34.938 -9.46163 70.5165 14.6284 100.081C68.6416 166.369 257.049 177.321 435.449 124.543C540.734 93.3957 619.003 47.0127 654.372 0.600018C654.65 0.236267 654.382 -0.275635 653.924 -0.275635V-0.275635C653.75 -0.275635 653.587 -0.194232 653.481 -0.0554762C648.05 7.11346 641.586 14.2873 634.145 21.41C593.532 60.2859 523.916 97.5224 434.892 123.859C345.868 150.196 254.4 160.614 178.515 156.203C102.607 151.791 42.5042 132.564 15.7626 99.745C-8.00969 70.5705 -1.5558 35.3952 28.711 0.624179C29.014 0.276157 28.7737 -0.275635 28.3123 -0.275635V-0.275635ZM37.5085 -0.275635C37.1809 -0.275635 36.8678 -0.124561 36.6624 0.130546C10.944 32.063 6.14907 64.2895 28.2091 91.3627C54.243 123.313 112.573 141.82 185.481 146.059C258.413 150.298 346.145 140.283 431.432 115.052C516.719 89.8204 583.521 54.1182 622.554 16.7552C627.841 11.6944 632.62 6.60106 636.868 1.49734C637.457 0.78943 636.949 -0.275635 636.028 -0.275635V-0.275635C635.699 -0.275635 635.388 -0.12793 635.179 0.126C630.831 5.41098 625.902 10.6916 620.415 15.9433C581.67 53.0309 515.254 88.5567 430.319 113.684C345.383 138.811 258.118 148.75 185.724 144.542C113.306 140.332 55.9814 121.99 30.4777 90.691C9.02944 64.3687 13.3777 32.9209 38.356 1.51852C38.9271 0.800536 38.4259 -0.275635 37.5085 -0.275635V-0.275635ZM49.3546 -0.275635C49.0028 -0.275635 48.6692 -0.105129 48.4618 0.178924C27.6103 28.7352 24.6808 57.284 44.4045 81.4899C69.0792 111.772 124.359 129.308 193.435 133.323C262.534 137.34 345.651 127.851 426.449 103.948C507.247 80.0445 570.535 46.2208 607.517 10.8212C610.751 7.72532 613.785 4.61652 616.612 1.50047C617.235 0.814384 616.744 -0.275635 615.818 -0.275635V-0.275635C615.511 -0.275635 615.219 -0.144645 615.014 0.0836631C612.039 3.39966 608.825 6.71047 605.378 10.0093C568.684 45.1335 505.782 78.7808 425.335 102.58C344.889 126.379 262.239 135.792 193.677 131.806C125.092 127.82 70.8176 110.449 46.6731 80.8181C27.5346 57.3305 30.0892 29.5286 50.2527 1.51023C50.7848 0.770893 50.2654 -0.275635 49.3546 -0.275635V-0.275635ZM60.2269 -0.275635C59.8531 -0.275635 59.501 -0.0865728 59.2936 0.224413C42.1007 26.0079 40.4825 51.6015 58.3032 73.4719C81.7797 102.283 134.371 118.963 200.068 122.782C265.788 126.602 344.837 117.577 421.678 94.8445C498.518 72.1121 558.71 39.9442 593.883 6.27547C595.543 4.68702 597.147 3.09497 598.694 1.50016C599.342 0.832842 598.865 -0.275635 597.936 -0.275635V-0.275635C597.646 -0.275635 597.369 -0.156963 597.168 0.0520871C595.434 1.85884 593.626 3.66308 591.745 5.46358C556.859 38.8569 497.053 70.8483 420.564 93.4768C344.075 116.105 265.494 125.054 200.311 121.265C135.104 117.475 83.5181 100.961 60.5718 72.8002C43.3128 51.6192 44.6141 26.7433 61.169 1.4991C61.6647 0.743151 61.1309 -0.275635 60.2269 -0.275635V-0.275635ZM71.6611 -0.275635C71.2624 -0.275635 70.89 -0.0647268 70.6848 0.277066C56.8077 23.3912 56.3168 46.1821 72.3165 65.8178C94.6264 93.1976 144.6 109.043 207.007 112.67C269.438 116.299 344.526 107.726 417.513 86.1336C490.5 64.5411 547.677 33.9856 581.089 2.00212C581.265 1.83404 581.44 1.66592 581.614 1.49776C582.285 0.850128 581.824 -0.275635 580.891 -0.275635V-0.275635C580.617 -0.275635 580.355 -0.168319 580.159 0.0226196C579.76 0.411989 579.357 0.80119 578.951 1.19021C545.826 32.8983 489.035 63.2774 416.4 84.7659C343.764 106.254 269.144 114.752 207.25 111.154C145.332 107.555 96.3648 91.8752 74.5851 65.146C59.121 46.1678 59.3535 24.0615 72.6502 1.48267C73.1045 0.71127 72.5563 -0.275635 71.6611 -0.275635V-0.275635ZM82.4393 -0.275635C82.0182 -0.275635 81.6278 -0.0441724 81.4266 0.325751C70.054 21.231 70.342 41.7407 84.8407 59.5342C106.103 85.6283 153.726 100.724 213.179 104.18C272.656 107.638 344.186 99.47 413.713 78.9011C481.159 58.9481 534.434 30.9598 566.621 1.4872C567.31 0.856133 566.853 -0.275635 565.918 -0.275635V-0.275635C565.657 -0.275635 565.409 -0.179505 565.218 -0.00243572C533.394 29.4469 480.205 57.5333 412.6 77.5334C343.424 97.9983 272.361 106.09 213.421 102.664C154.458 99.2363 107.841 84.3059 87.1093 58.8624C73.1228 41.6976 72.6235 21.8425 83.4684 1.46437C83.8848 0.681919 83.3257 -0.275635 82.4393 -0.275635V-0.275635Z" fill="url(#paint0_linear_624_3579)"/>
</g>
<defs>
<linearGradient id="paint0_linear_624_3579" x1="81.6559" y1="149.961" x2="382.173" y2="-180.709" gradientUnits="userSpaceOnUse">
<stop offset="0.276042" stop-color="#D9297D"/>
<stop offset="0.546875" stop-color="#F18520"/>
<stop offset="0.979067" stop-color="#2FCEFF"/>
<stop offset="0.979167" stop-color="#151523" stop-opacity="0"/>
</linearGradient>
<clipPath id="clip0_624_3579">
<rect width="675" height="158" fill="white"/>
</clipPath>
</defs>
</svg>