<svg width="240" height="46" viewBox="0 0 240 46" fill="none" xmlns="http://www.w3.org/2000/svg">
<path d="M59.3621 20.5832C61.2457 20.5832 62.7298 19.8411 63.9284 18.3571L66.3828 20.8686C64.4421 23.0376 62.216 24.1221 59.5904 24.1221C56.9647 24.1221 54.8528 23.323 53.1404 21.6677C51.428 20.0124 50.6289 17.9575 50.6289 15.446C50.6289 12.9345 51.4851 10.8226 53.1975 9.16726C54.9099 7.51195 57.0218 6.65576 59.5333 6.65576C62.3302 6.65576 64.6705 7.74027 66.497 9.85221L64.1567 12.5349C62.9581 11.0509 61.474 10.3088 59.7045 10.3088C58.2776 10.3088 57.0789 10.7655 56.0515 11.6788C55.024 12.592 54.5103 13.8478 54.5103 15.446C54.5103 17.0442 54.9669 18.3 55.9373 19.2703C56.8506 20.0694 57.9922 20.5832 59.3621 20.5832Z" fill="white"/>
<path d="M69.3555 23.894V6.94141H73.1227V20.5263H80.3718V23.894H69.3555Z" fill="white"/>
<path d="M96.9199 21.5535C95.2075 23.2088 93.0956 24.065 90.5841 24.065C88.0726 24.065 85.9606 23.2088 84.2483 21.5535C82.5359 19.8982 81.6797 17.7862 81.6797 15.3318C81.6797 12.8203 82.5359 10.7654 84.2483 9.11013C85.9606 7.45483 88.0726 6.59863 90.5841 6.59863C93.0956 6.59863 95.2075 7.45483 96.9199 9.11013C98.6323 10.7654 99.4885 12.8774 99.4885 15.3318C99.4885 17.8433 98.6323 19.8982 96.9199 21.5535ZM95.6071 15.3318C95.6071 13.8477 95.0934 12.5349 94.123 11.4504C93.1527 10.3659 91.954 9.85216 90.527 9.85216C89.1 9.85216 87.9014 10.3659 86.931 11.4504C85.9606 12.5349 85.4469 13.7906 85.4469 15.3318C85.4469 16.8159 85.9606 18.1287 86.931 19.2132C87.9014 20.2977 89.1 20.8114 90.527 20.8114C91.954 20.8114 93.1527 20.2977 94.123 19.2132C95.1505 18.1287 95.6071 16.8729 95.6071 15.3318Z" fill="white"/>
<path d="M107.197 19.5555C107.825 20.3546 108.681 20.7542 109.766 20.7542C110.85 20.7542 111.706 20.3546 112.277 19.5555C112.905 18.7564 113.19 17.6719 113.19 16.3591V6.99805H116.958V16.4732C116.958 18.9277 116.273 20.8113 114.903 22.1241C113.533 23.4369 111.82 24.1219 109.709 24.1219C107.597 24.1219 105.827 23.4369 104.457 22.1241C103.087 20.8113 102.402 18.9277 102.402 16.4732V6.99805H106.17V16.3591C106.227 17.6719 106.569 18.7564 107.197 19.5555Z" fill="white"/>
<path d="M133.852 9.16751C135.45 10.6516 136.306 12.7064 136.306 15.3321C136.306 17.9577 135.507 20.0697 133.966 21.6108C132.368 23.152 129.97 23.894 126.774 23.894H120.895V6.94141H126.888C129.913 6.94141 132.253 7.68344 133.852 9.16751ZM131.112 19.2706C132.025 18.4144 132.482 17.1016 132.482 15.4463C132.482 13.7909 132.025 12.4781 131.112 11.6219C130.198 10.7087 128.771 10.252 126.831 10.252H124.719V20.5834H127.116C128.829 20.5834 130.141 20.1268 131.112 19.2706Z" fill="white"/>
<path d="M157.826 6.94141H161.593V23.894H157.826L149.72 13.2772V23.894H145.953V6.94141H149.492L157.826 17.8436V6.94141Z" fill="white"/>
<path d="M177.861 23.894L176.262 20.2409H169.127L167.529 23.894H163.477L170.783 6.94141H174.436L181.742 23.894H177.861ZM172.781 12.0215L170.669 16.9303H174.892L172.781 12.0215Z" fill="white"/>
<path d="M189.847 10.2516V23.9507H186.08V10.2516H181.285V6.99805H194.699V10.2516H189.847Z" fill="white"/>
<path d="M197.383 6.94141H201.15V23.894H197.383V6.94141Z" fill="white"/>
<path d="M211.591 17.7294L215.929 6.94141H220.039L213.247 23.894H210.05L203.258 6.94141H207.368L211.591 17.7294Z" fill="white"/>
<path d="M234.258 6.94141V10.3091H225.81V13.7909H233.402V17.0445H225.81V20.5834H234.543V23.9511H222.043V6.99849H234.258V6.94141Z" fill="white"/>
<path d="M55.026 38.3345C56.0535 38.3345 56.9096 37.935 57.5946 37.0788L58.9645 38.5058C57.88 39.7044 56.6243 40.3323 55.1402 40.3323C53.6561 40.3323 52.4574 39.8757 51.5442 38.9624C50.5738 38.0491 50.1172 36.8505 50.1172 35.4806C50.1172 34.0536 50.5738 32.912 51.5442 31.9416C52.5145 30.9713 53.7132 30.5146 55.0831 30.5146C56.6242 30.5146 57.9371 31.0854 59.0216 32.2841L57.7088 33.7682C57.0238 32.912 56.2247 32.5124 55.1973 32.5124C54.3982 32.5124 53.7132 32.7978 53.1424 33.3115C52.5716 33.8253 52.2862 34.5102 52.2862 35.4235C52.2862 36.3368 52.5716 37.0217 53.0853 37.5354C53.599 38.1062 54.284 38.3345 55.026 38.3345Z" fill="white"/>
<path d="M68.3838 38.9053C67.4134 39.8186 66.2147 40.3323 64.8448 40.3323C63.4178 40.3323 62.2762 39.8757 61.3059 38.9053C60.3355 37.9921 59.8789 36.7934 59.8789 35.4235C59.8789 34.0536 60.3355 32.8549 61.3059 31.9416C62.2762 31.0284 63.4749 30.5146 64.8448 30.5146C66.2718 30.5146 67.4134 30.9713 68.3838 31.9416C69.3541 32.8549 69.8107 34.0536 69.8107 35.4235C69.8107 36.7934 69.3541 37.9921 68.3838 38.9053ZM67.6988 35.4235C67.6988 34.5673 67.4134 33.8253 66.8997 33.2545C66.3289 32.6837 65.701 32.3412 64.9019 32.3412C64.1028 32.3412 63.4178 32.6266 62.9041 33.2545C62.3333 33.8253 62.105 34.5673 62.105 35.4235C62.105 36.2797 62.3904 36.9646 62.9041 37.5925C63.4749 38.1633 64.1028 38.5058 64.9019 38.5058C65.701 38.5058 66.386 38.2204 66.8997 37.5925C67.4134 37.0217 67.6988 36.2797 67.6988 35.4235Z" fill="white"/>
<path d="M80.1416 34.225L77.573 39.4192H76.3172L73.7487 34.225V40.2183H71.6367V30.686H74.4907L76.9451 35.8803L79.3995 30.686H82.2535V40.2183H80.1416V34.225Z" fill="white"/>
<path d="M91.1555 31.5993C91.8405 32.1701 92.1829 33.0263 92.1829 34.225C92.1829 35.4236 91.8405 36.2798 91.1555 36.7935C90.4705 37.3643 89.4431 37.5927 88.0161 37.5927H86.7604V40.2183H84.6484V30.686H88.0161C89.4431 30.7431 90.4705 31.0285 91.1555 31.5993ZM89.6144 35.3095C89.8427 35.0241 90.0139 34.6245 90.0139 34.0537C90.0139 33.4829 89.8427 33.1405 89.5002 32.9121C89.1577 32.6838 88.644 32.5697 87.9591 32.5697H86.7604V35.7661H88.1874C88.8723 35.7661 89.329 35.5949 89.6144 35.3095Z" fill="white"/>
<path d="M96.3522 37.7643C96.6947 38.221 97.2084 38.4493 97.7792 38.4493C98.35 38.4493 98.8637 38.221 99.2062 37.7643C99.5487 37.3077 99.7199 36.7369 99.7199 35.9378V30.6865H101.832V35.9949C101.832 37.3648 101.432 38.4493 100.69 39.1913C99.9482 39.9334 98.9779 40.2758 97.7792 40.2758C96.5805 40.2758 95.6102 39.8763 94.8682 39.1342C94.1261 38.3922 93.7266 37.3077 93.7266 35.9378V30.6294H95.8385V35.8807C95.8385 36.7369 96.0097 37.3648 96.3522 37.7643Z" fill="white"/>
<path d="M108.052 32.5697V40.2184H105.941V32.5697H103.258V30.7432H110.792V32.5697H108.052Z" fill="white"/>
<path d="M112.332 30.7432H114.444V40.2754H112.332V30.7432Z" fill="white"/>
<path d="M123.406 30.7432H125.518V40.2754H123.406L118.897 34.3392V40.2754H116.785V30.7432H118.783L123.463 36.8507V30.7432H123.406Z" fill="white"/>
<path d="M134.082 35.424H136.193V38.7917C135.223 39.8191 133.967 40.3899 132.255 40.3899C130.885 40.3899 129.686 39.9333 128.716 39.02C127.746 38.1068 127.289 36.9081 127.289 35.5382C127.289 34.1112 127.746 32.9696 128.716 31.9993C129.686 31.0289 130.828 30.5723 132.198 30.5723C133.568 30.5723 134.766 31.0289 135.737 31.9422L134.652 33.5404C134.253 33.1408 133.853 32.9125 133.454 32.7984C133.111 32.6842 132.712 32.57 132.312 32.57C131.513 32.57 130.828 32.8554 130.257 33.3692C129.686 33.94 129.401 34.6249 129.401 35.5382C129.401 36.4515 129.686 37.1364 130.2 37.7072C130.714 38.2209 131.342 38.5063 132.084 38.5063C132.826 38.5063 133.454 38.3922 133.91 38.1068V35.424H134.082Z" fill="white"/>
<path d="M148.179 30.7432V32.6268H143.784V34.6817H147.951V36.5653H143.784V40.2754H141.672V30.7432H148.179Z" fill="white"/>
<path d="M157.997 38.9053C157.027 39.8186 155.828 40.3323 154.458 40.3323C153.031 40.3323 151.89 39.8757 150.919 38.9053C149.949 37.9921 149.492 36.7934 149.492 35.4235C149.492 34.0536 149.949 32.8549 150.919 31.9416C151.89 31.0284 153.088 30.5146 154.458 30.5146C155.885 30.5146 157.027 30.9713 157.997 31.9416C158.967 32.8549 159.424 34.0536 159.424 35.4235C159.424 36.7934 158.967 37.9921 157.997 38.9053ZM157.255 35.4235C157.255 34.5673 156.97 33.8253 156.456 33.2545C155.885 32.6837 155.257 32.3412 154.458 32.3412C153.659 32.3412 152.974 32.6266 152.46 33.2545C151.89 33.8253 151.661 34.5673 151.661 35.4235C151.661 36.2797 151.947 36.9646 152.46 37.5925C153.031 38.1633 153.659 38.5058 154.458 38.5058C155.257 38.5058 155.942 38.2204 156.456 37.5925C157.027 37.0217 157.255 36.2797 157.255 35.4235Z" fill="white"/>
<path d="M163.762 37.7643C164.105 38.221 164.619 38.4493 165.189 38.4493C165.76 38.4493 166.274 38.221 166.616 37.7643C166.959 37.3077 167.13 36.7369 167.13 35.9378V30.6865H169.242V35.9949C169.242 37.3648 168.842 38.4493 168.1 39.1913C167.358 39.9334 166.388 40.2758 165.189 40.2758C163.991 40.2758 163.02 39.8763 162.278 39.1342C161.536 38.3922 161.137 37.3077 161.137 35.9378V30.6294H163.249V35.8807C163.192 36.7369 163.42 37.3648 163.762 37.7643Z" fill="white"/>
<path d="M178.09 30.7432H180.202V40.2754H178.09L173.581 34.3392V40.2754H171.469V30.7432H173.467L178.147 36.8507V30.7432H178.09Z" fill="white"/>
<path d="M189.792 31.9989C190.705 32.8551 191.162 33.9967 191.162 35.4808C191.162 36.9648 190.705 38.1064 189.849 38.9626C188.993 39.8188 187.623 40.2754 185.797 40.2754H182.543V30.7432H185.911C187.623 30.7432 188.936 31.1427 189.792 31.9989ZM188.251 37.6498C188.765 37.1361 189.05 36.4511 189.05 35.5378C189.05 34.6246 188.765 33.8825 188.251 33.3688C187.737 32.8551 186.938 32.6268 185.854 32.6268H184.655V38.3918H186.025C186.995 38.3347 187.737 38.1064 188.251 37.6498Z" fill="white"/>
<path d="M199.495 40.2183L198.639 38.1634H194.643L193.787 40.2183H191.504L195.614 30.686H197.668L201.778 40.2183H199.495ZM196.641 33.54L195.442 36.2798H197.84L196.641 33.54Z" fill="white"/>
<path d="M206.231 32.5697V40.2184H204.119V32.5697H201.379V30.7432H208.913V32.5697H206.231Z" fill="white"/>
<path d="M210.453 30.7432H212.565V40.2754H210.453V30.7432Z" fill="white"/>
<path d="M222.895 38.9053C221.925 39.8186 220.726 40.3323 219.357 40.3323C217.93 40.3323 216.788 39.8757 215.818 38.9053C214.847 37.9921 214.391 36.7934 214.391 35.4235C214.391 34.0536 214.847 32.8549 215.818 31.9416C216.788 31.0284 217.987 30.5146 219.357 30.5146C220.784 30.5146 221.925 30.9713 222.895 31.9416C223.866 32.8549 224.322 34.0536 224.322 35.4235C224.322 36.7934 223.866 37.9921 222.895 38.9053ZM222.211 35.4235C222.211 34.5673 221.925 33.8253 221.411 33.2545C220.841 32.6837 220.213 32.3412 219.414 32.3412C218.615 32.3412 217.93 32.6266 217.416 33.2545C216.845 33.8253 216.617 34.5673 216.617 35.4235C216.617 36.2797 216.902 36.9646 217.416 37.5925C217.987 38.1633 218.615 38.5058 219.414 38.5058C220.213 38.5058 220.898 38.2204 221.411 37.5925C221.925 37.0217 222.211 36.2797 222.211 35.4235Z" fill="white"/>
<path d="M232.77 30.7432H234.882V40.2754H232.77L228.26 34.3392V40.2754H226.148V30.7432H228.146L232.827 36.8507L232.77 30.7432Z" fill="white"/>
<path d="M9.87783 28.9736H4.68359V41.1886H16.8415V35.9373H9.87783V28.9736Z" fill="white"/>
<path d="M36.0223 29.0307V35.9373H29.0586V35.8803V41.1886H41.2165V28.9736H35.9652L36.0223 29.0307Z" fill="white"/>
<path d="M4.68359 16.8156H9.93491L9.87783 16.7585V9.8519H16.8415V4.60059H4.68359V16.8156Z" fill="white"/>
<path d="M29.0586 4.60059V9.8519H36.0223V16.8156H41.2165V4.60059H29.0586Z" fill="white"/>
<g opacity="0.8">
<path d="M28.3699 16.8156L21.4062 9.8519H29.0549V4.60059H16.8398V9.8519L23.8035 16.8156H28.3699Z" fill="white"/>
<path d="M22.0912 28.9736H17.5248L23.2898 34.7387L24.4314 35.9373H16.8398V41.1886H29.0549V35.8803L25.573 32.4555L22.0912 28.9736Z" fill="white"/>
<path d="M36.0223 16.8154V24.407L34.8236 23.2083L29.0586 17.4433V22.0667L32.4834 25.4915L35.9652 28.9734H41.2165V16.8154H36.0223Z" fill="white"/>
<path d="M16.8415 23.722L9.93491 16.8154H4.68359V28.9734H9.87783V21.3818L16.8415 28.3455V23.722Z" fill="white"/>
</g>
</svg>
