<svg width="148" height="19" viewBox="0 0 148 19" fill="none" xmlns="http://www.w3.org/2000/svg">
<path fill-rule="evenodd" clip-rule="evenodd" d="M52.585 6.65789H56.4638V17.7895H52.585V16.4169C51.785 17.3828 50.5618 18.0003 49.1911 18.0003C46.79 18.0003 44.8418 16.1057 44.8275 13.7632L44.8274 6.65789H48.7062V13.0266C48.7062 14.073 49.5745 14.9213 50.6456 14.9213C51.7167 14.9213 52.585 14.073 52.585 13.0266V6.65789ZM92.1001 12.2237V17.7895H88.9486V16.7621C88.0394 17.4958 86.9269 17.8534 85.9043 17.8534C82.5572 17.8534 79.9789 15.4284 79.9789 12.2237C79.9789 9.01898 82.6923 6.42105 86.0395 6.42105C89.3867 6.42105 92.1001 9.01898 92.1001 12.2237ZM86.1607 14.7105C87.5665 14.7105 88.7061 13.5441 88.7061 12.1053C88.7061 10.6664 87.5665 9.5 86.1607 9.5C84.7549 9.5 83.6152 10.6664 83.6152 12.1053C83.6152 13.5441 84.7549 14.7105 86.1607 14.7105ZM119.009 6.65789H121.433V9.73684H119.009V13.0266H119.022C119.127 13.9613 119.841 14.6845 120.706 14.6845C120.966 14.6845 121.213 14.6191 121.433 14.5022V17.5572C120.849 17.8408 120.191 18.0003 119.494 18.0003C117.093 18.0003 115.145 16.1057 115.13 13.7632L115.13 9.73684H113.191V6.65789H115.13V3.10526H119.009V6.65789ZM78.5243 17.7895H74.6456V11.4208C74.6456 10.3743 73.7773 9.52602 72.7062 9.52602C71.6351 9.52602 70.7668 10.3743 70.7668 11.4208V17.7895H66.888V11.4208C66.888 10.3743 66.0197 9.52602 64.9486 9.52602C63.8775 9.52602 63.0092 10.3743 63.0092 11.4208V17.7895H59.1304V6.65789H63.0092V8.03044C63.8092 7.0646 65.0324 6.44707 66.4031 6.44707C67.8385 6.44707 69.112 7.12414 69.9073 8.16921C70.7962 7.09774 72.1541 6.41286 73.6758 6.41286C76.3536 6.41286 78.5243 8.53362 78.5243 11.1497V17.7895ZM38.5244 17.7895V11.4208C38.5244 10.3743 37.6561 9.52602 36.585 9.52602C35.5139 9.52602 34.6456 10.3743 34.6456 11.4208V17.7895H30.7668V3.10526H34.6456V8.03044C35.4456 7.0646 36.6688 6.44707 38.0396 6.44707C40.4406 6.44707 42.3888 8.34171 42.4031 10.6842L42.4032 17.7895H38.5244ZM101.797 17.7895V11.4208C101.797 10.3743 100.929 9.52602 99.8576 9.52602C98.7865 9.52602 97.9182 10.3743 97.9182 11.4208V17.7895H94.0395V6.65789H97.9182V8.03044C98.7182 7.0646 99.9414 6.44707 101.312 6.44707C103.713 6.44707 105.661 8.34171 105.676 10.6842L105.676 17.7895H101.797ZM107.615 17.7895V6.65789H111.494V17.7895H107.615ZM109.388 5.85912L106.646 3.17956L109.388 0.5L112.131 3.17956L109.388 5.85912ZM134.922 13.2895H126.453C126.802 14.4021 127.679 15.1842 129.07 15.1842C130.018 15.1842 130.727 14.8207 131.193 14.2368H134.683C133.926 16.4492 131.888 18.0263 128.948 18.0263C125.176 18.0263 122.888 15.4284 122.888 12.2237C122.888 9.01898 125.601 6.42105 128.948 6.42105C132.296 6.42105 135.009 9.01898 135.009 12.2237C135.009 12.5878 134.98 12.944 134.922 13.2895ZM126.429 10.9211H131.71C131.403 9.80839 130.593 9.02631 129.07 9.02631C127.547 9.02631 126.736 9.80839 126.429 10.9211ZM144.461 13.2895H148C147.488 15.9851 145.068 18.0263 142.161 18.0263C138.88 18.0263 136.221 15.4284 136.221 12.2237C136.221 9.01898 138.88 6.42105 142.161 6.42105C144.982 6.42105 147.345 8.34357 147.95 10.9211H144.329C143.881 10.2105 143.078 9.73684 142.161 9.73684C140.755 9.73684 139.615 10.8502 139.615 12.2237C139.615 13.5971 140.755 14.7105 142.161 14.7105C143.176 14.7105 144.053 14.1297 144.461 13.2895ZM0 6.65789H4.84848C4.84848 10.582 8.10458 13.7632 12.1212 13.7632C16.1378 13.7632 19.3939 10.582 19.3939 6.65789H24.2424C24.2424 13.1981 18.8155 18.5 12.1212 18.5C5.42684 18.5 0 13.1981 0 6.65789ZM12.1212 0.940021L15.5496 4.28947L12.1212 7.63893L8.6928 4.28947L12.1212 0.940021Z" fill="white"/>
</svg>
