<svg width="134" height="31" viewBox="0 0 134 31" fill="none" xmlns="http://www.w3.org/2000/svg">
<path d="M51.8664 14.0952C50.8938 13.5522 49.8024 13.0365 48.6243 12.5676C47.9289 12.2789 47.2557 11.9729 46.6296 11.6594C46.0232 11.3584 45.5258 11.0129 45.1446 10.6353C44.8031 10.2972 44.6373 9.92211 44.6373 9.49518C44.6373 8.9498 44.8328 8.57469 45.2511 8.32051C45.7163 8.03671 46.288 7.89358 46.9464 7.89358C47.9264 7.89358 48.8149 8.12555 49.5871 8.58456C50.2974 9.00656 50.9087 9.53714 51.4061 10.1615C51.6214 10.4305 52.0001 10.4971 52.2872 10.312L54.6259 8.81901C54.9254 8.62652 55.0244 8.22673 54.8413 7.92319C54.4255 7.23221 53.8686 6.60539 53.1856 6.06001C52.4258 5.45539 51.5422 4.9643 50.5622 4.604C49.5747 4.24124 48.508 4.05615 47.3869 4.05615C46.2658 4.05615 45.1669 4.25604 44.12 4.64842C43.0533 5.05068 42.1723 5.6775 41.5065 6.51161C40.8284 7.36054 40.4844 8.43896 40.4844 9.71482C40.4844 10.9907 40.8136 12.0123 41.4595 12.8465C42.0881 13.6559 42.8776 14.3222 43.8131 14.8256C44.7115 15.3118 45.6173 15.7362 46.5132 16.0941C47.2854 16.3803 48.0279 16.6913 48.7209 17.022C49.3767 17.3354 49.9237 17.7228 50.3444 18.167C50.7354 18.5816 50.926 19.0801 50.926 19.6872C50.926 20.3634 50.6909 20.8791 50.2083 21.2617C49.7083 21.659 48.9956 21.8613 48.0898 21.8613C47.325 21.8613 46.6147 21.7182 45.9787 21.4344C45.3352 21.1481 44.761 20.7533 44.2685 20.2622C43.8255 19.8205 43.4221 19.3417 43.0657 18.8358C42.8628 18.5495 42.4693 18.4681 42.1723 18.6507L39.883 20.0648C39.586 20.2474 39.4796 20.6299 39.6429 20.9359C40.0315 21.6664 40.5785 22.3919 41.269 23.0952C42.0436 23.8825 43.0039 24.534 44.1225 25.0324C45.2461 25.5334 46.5231 25.7851 47.914 25.7851C50.0771 25.7851 51.8491 25.1632 53.1856 23.9392C54.5294 22.7078 55.2125 21.1432 55.2125 19.2948C55.2125 18.0239 54.9007 16.9652 54.2844 16.1434C53.6855 15.3488 52.8737 14.6603 51.8664 14.0976V14.0952Z" fill="white"/>
<path d="M71.7583 4.75454C70.4062 4.29059 68.994 4.05615 67.5666 4.05615C65.5247 4.05615 63.6533 4.5275 62.0002 5.46033C60.3496 6.39316 59.0252 7.68875 58.0619 9.31256C57.0986 10.9364 56.6095 12.8242 56.6095 14.9219C56.6095 17.0195 57.0986 18.8679 58.0594 20.5065C59.0226 22.1451 60.3471 23.4481 61.9977 24.3809C63.6483 25.3138 65.5197 25.7851 67.5641 25.7851C68.9914 25.7851 70.4012 25.5507 71.7558 25.0867C73.0828 24.6327 74.1339 23.9861 74.8789 23.1693C74.9893 23.0483 75.0495 22.8904 75.0495 22.7251V19.507C75.0495 19.2208 74.8714 18.974 74.598 18.8827C74.322 18.7889 74.0285 18.8728 73.8454 19.0999C73.5996 19.4059 73.291 19.7069 72.9298 19.9981C72.255 20.5386 71.4473 20.9729 70.5267 21.2937C69.6085 21.6145 68.6102 21.775 67.5591 21.775C66.2998 21.775 65.1585 21.4763 64.1726 20.8865C63.1817 20.2967 62.3866 19.4799 61.8146 18.4632C61.2402 17.444 60.9492 16.252 60.9492 14.9219C60.9492 13.5917 61.2402 12.3899 61.8146 11.3559C62.3866 10.3268 63.1792 9.51246 64.1676 8.93746C65.1559 8.36246 66.2973 8.06879 67.5591 8.06879C68.6077 8.06879 69.606 8.23167 70.5267 8.55001C71.4473 8.87083 72.2575 9.30023 72.9323 9.82587C73.2935 10.1072 73.5996 10.4083 73.8454 10.7167C74.021 10.9413 74.3145 11.0277 74.5879 10.9339C74.8664 10.8401 75.047 10.5934 75.047 10.3046V7.11376C75.047 6.94841 74.9868 6.79047 74.8764 6.66955C74.1314 5.85271 73.0803 5.20615 71.7533 4.75207L71.7583 4.75454Z" fill="white"/>
<path d="M93.2524 5.46033C91.6439 4.5275 89.799 4.05615 87.7644 4.05615C85.7298 4.05615 83.9219 4.5275 82.2986 5.46033C80.6779 6.39316 79.3773 7.68875 78.4315 9.31257C77.4856 10.9364 77.0053 12.8242 77.0053 14.9219C77.0053 17.0195 77.4856 18.8679 78.429 20.5065C79.3748 22.1451 80.6754 23.4481 82.2962 24.381C83.917 25.3138 85.7545 25.7851 87.762 25.7851C89.7695 25.7851 91.6439 25.3113 93.2499 24.381C94.8559 23.4481 96.1491 22.1451 97.0949 20.5065C98.0408 18.8679 98.5187 16.9899 98.5187 14.9219C98.5187 12.8539 98.0383 10.9364 97.0925 9.31257C96.1491 7.69122 94.8559 6.39563 93.2499 5.4628L93.2524 5.46033ZM87.7644 21.7725C86.5279 21.7725 85.4072 21.4739 84.4391 20.8841C83.4662 20.2943 82.6854 19.4774 82.1238 18.4607C81.5597 17.4415 81.274 16.2495 81.274 14.9194C81.274 13.5893 81.5597 12.3874 82.1238 11.3534C82.6854 10.3244 83.4637 9.50999 84.4342 8.93499C85.4047 8.35999 86.5254 8.06633 87.7644 8.06633C89.0034 8.06633 90.1217 8.35753 91.0946 8.93499C92.0651 9.50999 92.8435 10.3244 93.4051 11.3534C93.9692 12.3874 94.2549 13.5893 94.2549 14.9194C94.2549 16.2495 93.9692 17.4415 93.4051 18.4607C92.841 19.4774 92.0627 20.2943 91.0897 20.8841C90.1192 21.4739 89.0009 21.7725 87.7644 21.7725Z" fill="white"/>
<path d="M111.962 4.35941C111.296 4.15807 110.567 4.05615 109.798 4.05615C108.772 4.05615 107.756 4.45387 106.777 5.23935C106.458 5.49538 106.155 5.78373 105.873 6.10438V5.16478C105.873 4.7969 105.571 4.49612 105.202 4.49612H102.264C101.894 4.49612 101.592 4.7969 101.592 5.16478V24.8343C101.592 25.2022 101.894 25.5029 102.264 25.5029H105.202C105.571 25.5029 105.873 25.2022 105.873 24.8343V12.5598C105.873 12.5424 105.876 12.525 105.876 12.5076C105.893 11.6873 105.986 10.9416 106.15 10.2854C106.323 9.5993 106.635 9.05245 107.077 8.66467C107.506 8.28685 108.123 8.09544 108.912 8.09544C109.448 8.09544 109.89 8.16753 110.227 8.30922C110.517 8.43102 110.844 8.61993 111.196 8.86353C111.343 8.96545 111.523 9.00522 111.7 8.97042C111.877 8.9381 112.035 8.8337 112.134 8.68456L113.772 6.2411C113.952 5.97016 113.914 5.6147 113.682 5.39098C113.158 4.89135 112.579 4.54335 111.96 4.35444L111.962 4.35941Z" fill="white"/>
<path d="M132.815 9.07262C132.02 7.46873 130.864 6.2177 129.379 5.35407C127.898 4.4929 126.104 4.05615 124.046 4.05615C121.987 4.05615 120.148 4.51511 118.58 5.41822C117.01 6.3238 115.774 7.60938 114.907 9.23794C114.042 10.8591 113.606 12.769 113.606 14.9206C113.606 17.0723 114.027 18.9353 114.862 20.554C115.699 22.1825 116.888 23.4731 118.398 24.3959C119.909 25.3163 121.661 25.7851 123.607 25.7851C125.837 25.7851 127.806 25.336 129.459 24.4502C131.029 23.6088 132.364 22.3651 133.426 20.7563C133.523 20.6083 133.558 20.4281 133.518 20.2554C133.478 20.0802 133.374 19.9297 133.219 19.8335L130.859 18.3604C130.548 18.1654 130.134 18.2592 129.937 18.5701C129.267 19.6114 128.457 20.4035 127.53 20.9266C126.53 21.4892 125.359 21.7754 124.046 21.7754C122.732 21.7754 121.611 21.499 120.704 20.9537C119.801 20.4133 119.106 19.6139 118.64 18.58C118.324 17.8817 118.109 17.0698 118.002 16.1643H133.301C133.655 16.1643 133.947 15.8904 133.969 15.5425L133.979 15.4067C133.994 15.1797 134.002 14.9577 134.002 14.7479C134.002 12.574 133.603 10.6642 132.815 9.07509V9.07262ZM118.702 10.943C119.183 9.94859 119.879 9.17872 120.768 8.64821C121.663 8.11769 122.765 7.84626 124.046 7.84626C125.122 7.84626 126.069 8.08068 126.862 8.53964C127.654 9.00106 128.285 9.64508 128.736 10.4569C129.06 11.0392 129.269 11.7079 129.361 12.4531H118.179C118.306 11.9004 118.481 11.397 118.7 10.943H118.702Z" fill="white"/>
<path d="M30.0322 4.04706V0.848087C30.0322 0.468744 29.7452 0.239751 29.387 0.336899L25.92 1.276L19.987 2.87665V0.53351C19.987 0.154167 19.7 -0.0748265 19.3418 0.0223223L10.2794 2.47649C9.92118 2.57364 9.63188 2.95992 9.63188 3.33926V6.86669H9.6204L9.61122 21.4344C8.66984 21.3072 7.57693 21.3812 6.41054 21.6981C2.87234 22.6557 0 25.4429 0 27.9225C0 30.4021 2.86546 31.6327 6.40595 30.6751C9.83393 29.7475 12.6236 27.1037 12.8004 24.6866L12.8096 24.5501C12.8096 24.5154 12.8096 24.4818 12.8096 24.4471C12.8096 24.4124 12.8096 24.3835 12.8096 24.3512L12.8211 7.12575L16.148 6.22366L19.6793 5.27067V7.61612C19.6793 7.99546 19.9664 8.22446 20.3245 8.12731L26.8338 6.36244L26.8246 19.4752C25.8832 19.348 24.7903 19.422 23.6239 19.7389C20.0857 20.6988 17.2134 23.4861 17.2134 25.9634C17.2134 28.443 20.0789 29.6735 23.6194 28.7159C27.0473 27.7884 29.837 25.1445 30.0138 22.7274L30.023 22.5909C30.023 22.5562 30.023 22.5239 30.023 22.4892C30.023 22.4545 30.023 22.4244 30.023 22.392L30.0345 4.04243L30.0322 4.04706Z" fill="url(#paint0_linear_552_3511)"/>
<defs>
<linearGradient id="paint0_linear_552_3511" x1="1.26414" y1="31" x2="33.4559" y2="2.06029" gradientUnits="userSpaceOnUse">
<stop offset="0.355079" stop-color="#D9297D"/>
<stop offset="1" stop-color="#F18520"/>
</linearGradient>
</defs>
</svg>
