<svg width="166" height="34" viewBox="0 0 166 34" fill="none" xmlns="http://www.w3.org/2000/svg">
<path d="M36.4178 6.9341L38.3175 1.31722C38.4398 0.859442 38.167 0.489969 37.703 0.490984L25.9644 0.512034C25.5004 0.513048 25.0263 0.885333 24.9039 1.34312L23.7662 5.59994L23.7523 5.59621L19.0424 23.1732C17.9463 22.7142 16.6022 22.4489 15.0911 22.4529C10.5082 22.4604 6.13955 24.892 5.33976 27.8843C4.53996 30.8767 7.60439 33.2915 12.19 33.2847C16.63 33.2776 20.8526 30.9923 21.8458 28.1327L21.9009 27.971L27.535 6.9474L31.8448 6.9383L36.4178 6.9341Z" fill="url(#paint0_linear_877_3486)"/>
<path d="M15.0635 19.7134L16.1568 15.7679L7.62953 11.1648L18.5619 5.46578L19.8738 0.424316L0.632812 10.6446V11.6851L15.0635 19.7134Z" fill="url(#paint1_linear_877_3486)"/>
<path d="M31.2434 10.9456L30.1502 14.8911L38.6774 19.4942L27.7451 25.1932L26.4332 30.2347L45.6742 20.0144V18.9739L31.2434 10.9456Z" fill="url(#paint2_linear_877_3486)"/>
<path d="M67.4426 15.8645C66.2814 15.2133 64.9784 14.5947 63.5719 14.0323C62.7417 13.686 61.938 13.319 61.1904 12.9431C60.4665 12.582 59.8726 12.1676 59.4176 11.7147C59.0098 11.3092 58.8119 10.8593 58.8119 10.3473C58.8119 9.69315 59.0453 9.24325 59.5446 8.93839C60.1001 8.598 60.7827 8.42633 61.5686 8.42633C62.7387 8.42633 63.7995 8.70456 64.7213 9.25509C65.5693 9.76123 66.2992 10.3976 66.8931 11.1464C67.1501 11.4691 67.6022 11.549 67.9449 11.327L70.7372 9.53628C71.0947 9.30541 71.2129 8.82591 70.9942 8.46185C70.4978 7.63308 69.833 6.88128 69.0175 6.22715C68.1104 5.50198 67.0556 4.91296 65.8855 4.48082C64.7066 4.04572 63.4331 3.82373 62.0946 3.82373C60.7561 3.82373 59.4442 4.06348 58.1943 4.5341C56.9208 5.01656 55.8689 5.76837 55.0741 6.7688C54.2645 7.787 53.8538 9.08046 53.8538 10.6107C53.8538 12.141 54.2468 13.3664 55.018 14.3668C55.7685 15.3376 56.711 16.1368 57.8279 16.7406C58.9005 17.3237 59.9819 17.8328 61.0515 18.262C61.9734 18.6053 62.8598 18.9783 63.6872 19.3749C64.4702 19.7508 65.1232 20.2155 65.6255 20.7483C66.0923 21.2455 66.3198 21.8434 66.3198 22.5715C66.3198 23.3826 66.0391 24.0012 65.463 24.4599C64.8661 24.9365 64.0151 25.1792 62.9337 25.1792C62.0207 25.1792 61.1727 25.0075 60.4133 24.6671C59.6451 24.3238 58.9596 23.8502 58.3716 23.2612C57.8427 22.7314 57.3611 22.1572 56.9356 21.5504C56.6933 21.207 56.2235 21.1094 55.8689 21.3284L53.1358 23.0244C52.7812 23.2434 52.6542 23.7022 52.8492 24.0692C53.3131 24.9454 53.9661 25.8156 54.7905 26.6591C55.7153 27.6033 56.8617 28.3847 58.1973 28.9826C59.5387 29.5835 61.0634 29.8854 62.7239 29.8854C65.3064 29.8854 67.422 29.1395 69.0175 27.6714C70.6219 26.1944 71.4375 24.3179 71.4375 22.1009C71.4375 20.5766 71.0652 19.3068 70.3294 18.3212C69.6144 17.3681 68.6452 16.5423 67.4426 15.8674V15.8645Z" fill="#151523"/>
<path d="M91.1913 4.66137C89.577 4.10492 87.8909 3.82373 86.1869 3.82373C83.749 3.82373 81.5149 4.38907 79.5412 5.5079C77.5706 6.62673 75.9893 8.18066 74.8393 10.1283C73.6893 12.0758 73.1053 14.3401 73.1053 16.856C73.1053 19.3719 73.6893 21.5889 74.8363 23.5542C75.9863 25.5196 77.5676 27.0824 79.5382 28.2012C81.5089 29.3201 83.743 29.8854 86.1839 29.8854C87.8879 29.8854 89.5711 29.6042 91.1883 29.0477C92.7726 28.5031 94.0274 27.7276 94.9169 26.7479C95.0487 26.6029 95.1206 26.4135 95.1206 26.2151V22.3555C95.1206 22.0121 94.9079 21.7161 94.5815 21.6066C94.252 21.4942 93.9016 21.5948 93.683 21.8671C93.3895 22.2341 93.0212 22.5952 92.5899 22.9445C91.7843 23.5927 90.8199 24.1136 89.7208 24.4984C88.6247 24.8832 87.4327 25.0756 86.1779 25.0756C84.6744 25.0756 83.3118 24.7175 82.1348 24.01C80.9518 23.3026 80.0025 22.3229 79.3196 21.1034C78.6338 19.881 78.2864 18.4514 78.2864 16.856C78.2864 15.2607 78.6338 13.8192 79.3196 12.579C80.0025 11.3448 80.9488 10.368 82.1288 9.67835C83.3088 8.9887 84.6715 8.63648 86.1779 8.63648C87.4297 8.63648 88.6217 8.83183 89.7208 9.21365C90.8199 9.59844 91.7873 10.1135 92.5929 10.7439C93.0241 11.0813 93.3895 11.4424 93.683 11.8124C93.8927 12.0818 94.2431 12.1854 94.5695 12.0729C94.9019 11.9604 95.1176 11.6644 95.1176 11.3181V7.49101C95.1176 7.2927 95.0457 7.10327 94.9139 6.95823C94.0244 5.97852 92.7696 5.20303 91.1853 4.65841L91.1913 4.66137Z" fill="#151523"/>
<path d="M116.853 5.5079C114.932 4.38907 112.73 3.82373 110.301 3.82373C107.872 3.82373 105.713 4.38907 103.775 5.5079C101.84 6.62673 100.287 8.18066 99.1582 10.1283C98.029 12.0758 97.4555 14.3401 97.4555 16.856C97.4555 19.3719 98.029 21.5889 99.1553 23.5542C100.285 25.5196 101.837 27.0824 103.772 28.2012C105.707 29.3201 107.901 29.8854 110.298 29.8854C112.694 29.8854 114.932 29.3171 116.85 28.2012C118.767 27.0824 120.311 25.5196 121.44 23.5542C122.57 21.5889 123.14 19.3364 123.14 16.856C123.14 14.3757 122.567 12.0758 121.437 10.1283C120.311 8.18362 118.767 6.62969 116.85 5.51086L116.853 5.5079ZM110.301 25.0726C108.824 25.0726 107.486 24.7145 106.331 24.0071C105.169 23.2997 104.237 22.32 103.566 21.1005C102.893 19.8781 102.552 18.4484 102.552 16.8531C102.552 15.2577 102.893 13.8163 103.566 12.5761C104.237 11.3418 105.166 10.365 106.325 9.67539C107.483 8.98574 108.822 8.63352 110.301 8.63352C111.78 8.63352 113.115 8.98278 114.277 9.67539C115.435 10.365 116.365 11.3418 117.035 12.5761C117.708 13.8163 118.05 15.2577 118.05 16.8531C118.05 18.4484 117.708 19.8781 117.035 21.1005C116.362 22.32 115.432 23.2997 114.271 24.0071C113.112 24.7145 111.777 25.0726 110.301 25.0726Z" fill="#151523"/>
<path d="M139.19 4.18746C138.394 3.94597 137.524 3.82373 136.606 3.82373C135.381 3.82373 134.168 4.30075 133 5.24286C132.618 5.54994 132.258 5.89578 131.921 6.28037V5.15342C131.921 4.71218 131.56 4.35143 131.119 4.35143H127.611C127.17 4.35143 126.809 4.71218 126.809 5.15342V28.7449C126.809 29.1862 127.17 29.5469 127.611 29.5469H131.119C131.56 29.5469 131.921 29.1862 131.921 28.7449V14.023C131.921 14.0021 131.924 13.9812 131.924 13.9604C131.945 12.9765 132.055 12.0821 132.252 11.295C132.457 10.4722 132.83 9.81627 133.357 9.35118C133.87 8.89801 134.606 8.66844 135.548 8.66844C136.189 8.66844 136.716 8.7549 137.119 8.92484C137.464 9.07093 137.855 9.29751 138.275 9.58968C138.451 9.71192 138.666 9.75962 138.877 9.71788C139.089 9.67912 139.277 9.55391 139.396 9.37503L141.351 6.44435C141.566 6.11938 141.521 5.69304 141.244 5.42472C140.618 4.82547 139.926 4.40808 139.187 4.18149L139.19 4.18746Z" fill="#151523"/>
<path d="M164.087 9.84046C163.137 7.91677 161.757 6.41628 159.984 5.38045C158.216 4.34757 156.074 3.82373 153.616 3.82373C151.159 3.82373 148.963 4.3742 147.091 5.45739C145.217 6.54354 143.741 8.08546 142.706 10.0388C141.673 11.9832 141.153 14.2738 141.153 16.8546C141.153 19.4353 141.655 21.6697 142.652 23.6112C143.652 25.5645 145.071 27.1123 146.874 28.2192C148.677 29.3231 150.769 29.8854 153.093 29.8854C155.756 29.8854 158.106 29.3468 160.079 28.2843C161.953 27.2751 163.548 25.7835 164.815 23.8539C164.932 23.6763 164.973 23.4602 164.926 23.2531C164.878 23.0429 164.753 22.8624 164.569 22.747L161.751 20.9801C161.379 20.7463 160.885 20.8588 160.65 21.2317C159.85 22.4806 158.883 23.4306 157.776 24.0581C156.583 24.7328 155.184 25.0761 153.616 25.0761C152.048 25.0761 150.709 24.7447 149.626 24.0906C148.549 23.4425 147.719 22.4836 147.163 21.2435C146.785 20.406 146.529 19.4323 146.401 18.3462H164.667C165.089 18.3462 165.437 18.0177 165.464 17.6004L165.476 17.4376C165.494 17.1653 165.503 16.899 165.503 16.6474C165.503 14.04 165.027 11.7494 164.087 9.84342V9.84046ZM147.237 12.0838C147.811 10.8911 148.641 9.96772 149.704 9.33142C150.772 8.69512 152.087 8.36957 153.616 8.36957C154.902 8.36957 156.032 8.65073 156.978 9.2012C157.925 9.75464 158.677 10.5271 159.216 11.5008C159.603 12.1992 159.853 13.0012 159.963 13.895H146.612C146.764 13.2321 146.972 12.6283 147.234 12.0838H147.237Z" fill="#151523"/>
<defs>
<linearGradient id="paint0_linear_877_3486" x1="4.78711" y1="30.7397" x2="41.0044" y2="0.708194" gradientUnits="userSpaceOnUse">
<stop offset="0.520833" stop-color="#D9297D"/>
<stop offset="1" stop-color="#F18520"/>
</linearGradient>
<linearGradient id="paint1_linear_877_3486" x1="4.78711" y1="30.7397" x2="41.0044" y2="0.708194" gradientUnits="userSpaceOnUse">
<stop offset="0.520833" stop-color="#D9297D"/>
<stop offset="1" stop-color="#F18520"/>
</linearGradient>
<linearGradient id="paint2_linear_877_3486" x1="4.78711" y1="30.7397" x2="41.0044" y2="0.708194" gradientUnits="userSpaceOnUse">
<stop offset="0.520833" stop-color="#D9297D"/>
<stop offset="1" stop-color="#F18520"/>
</linearGradient>
</defs>
</svg>
