<svg width="582" height="116" viewBox="0 0 582 116" fill="none" xmlns="http://www.w3.org/2000/svg">
<path d="M126.324 22.9801L133.03 3.15205C133.462 1.53603 132.499 0.231761 130.861 0.235342L89.4226 0.30965C87.7847 0.313231 86.1112 1.62743 85.6793 3.24344L81.6628 18.2704L81.6139 18.2573L64.9875 80.3057C61.1182 78.6854 56.3735 77.7489 51.039 77.7628C34.8611 77.7895 19.4393 86.3731 16.6159 96.9364C13.7926 107.5 24.6103 116.024 40.798 116C56.4717 115.975 71.3777 107.908 74.8839 97.8131L75.0784 97.2422L94.9672 23.0271L110.181 22.995L126.324 22.9801Z" fill="url(#paint0_linear_325_2976)"/>
<path d="M50.9417 68.0921L54.801 54.1642L24.699 37.9149L63.2913 17.7968L67.9223 0L0 36.0784V39.7514L50.9417 68.0921Z" fill="url(#paint1_linear_325_2976)"/>
<path d="M108.058 37.1411L104.199 51.069L134.301 67.3183L95.7087 87.4364L91.0777 105.233L159 69.1548V65.4818L108.058 37.1411Z" fill="url(#paint2_linear_325_2976)"/>
<path d="M235.839 54.5049C231.74 52.2062 227.14 50.0225 222.175 48.0373C219.244 46.8148 216.407 45.5191 213.768 44.1922C211.212 42.9174 209.116 41.4546 207.51 39.856C206.07 38.4245 205.371 36.8363 205.371 35.0287C205.371 32.7196 206.195 31.1314 207.958 30.0552C209.919 28.8536 212.328 28.2476 215.103 28.2476C219.233 28.2476 222.978 29.2298 226.232 31.1732C229.226 32.9599 231.802 35.2064 233.899 37.8499C234.806 38.9888 236.402 39.2709 237.612 38.4872L247.469 32.1658C248.731 31.3508 249.148 29.6581 248.376 28.373C246.624 25.4474 244.277 22.7934 241.398 20.4843C238.196 17.9244 234.472 15.8451 230.342 14.3196C226.18 12.7836 221.685 12 216.96 12C212.235 12 207.603 12.8463 203.191 14.5077C198.696 16.2108 194.983 18.8647 192.177 22.3964C189.319 25.9907 187.869 30.5567 187.869 35.9587C187.869 41.3606 189.256 45.6863 191.979 49.2179C194.628 52.6451 197.955 55.4662 201.898 57.5977C205.684 59.6561 209.502 61.4533 213.278 62.9683C216.532 64.1804 219.661 65.4969 222.582 66.897C225.346 68.224 227.651 69.8644 229.424 71.7451C231.072 73.5005 231.875 75.6111 231.875 78.1815C231.875 81.0444 230.884 83.2282 228.85 84.8477C226.743 86.5299 223.739 87.3867 219.922 87.3867C216.699 87.3867 213.705 86.7807 211.025 85.5791C208.313 84.3671 205.893 82.6953 203.817 80.616C201.95 78.7457 200.25 76.7187 198.748 74.5767C197.893 73.3647 196.234 73.0199 194.983 73.7931L185.334 79.7801C184.083 80.5533 183.634 82.1728 184.323 83.4685C185.96 86.5613 188.265 89.6331 191.175 92.611C194.44 95.9441 198.487 98.7026 203.202 100.813C207.937 102.934 213.319 104 219.181 104C228.298 104 235.766 101.367 241.398 96.1844C247.062 90.9706 249.941 84.3462 249.941 76.5202C249.941 71.1391 248.627 66.6567 246.029 63.1773C243.505 59.8128 240.084 56.8977 235.839 54.5154V54.5049Z" fill="white"/>
<path d="M319.674 14.957C313.975 12.9926 308.023 12 302.008 12C293.402 12 285.515 13.9957 278.548 17.9453C271.591 21.8948 266.009 27.3804 261.95 34.2555C257.89 41.1307 255.828 49.1239 255.828 58.0052C255.828 66.8865 257.89 74.7126 261.939 81.6504C265.999 88.5883 271.581 94.1052 278.537 98.0547C285.494 102.004 293.381 104 301.997 104C308.013 104 313.954 103.007 319.663 101.043C325.256 99.1205 329.685 96.383 332.825 92.9245C333.291 92.4125 333.544 91.7438 333.544 91.0437V77.4187C333.544 76.2067 332.794 75.1618 331.641 74.7752C330.478 74.3782 329.241 74.7334 328.47 75.6947C327.434 76.9903 326.133 78.2651 324.611 79.498C321.767 81.7862 318.363 83.6252 314.483 84.9835C310.613 86.3419 306.406 87.021 301.976 87.021C296.669 87.021 291.858 85.7567 287.703 83.2595C283.527 80.7623 280.176 77.3038 277.766 72.999C275.345 68.6837 274.118 63.637 274.118 58.0052C274.118 52.3734 275.345 47.285 277.766 42.907C280.176 38.5499 283.517 35.1019 287.682 32.6673C291.848 30.2328 296.658 28.9894 301.976 28.9894C306.395 28.9894 310.603 29.679 314.483 31.0269C318.363 32.3852 321.778 34.2033 324.621 36.4288C326.144 37.62 327.434 38.8947 328.47 40.2008C329.21 41.1516 330.447 41.5173 331.599 41.1203C332.773 40.7232 333.534 39.6784 333.534 38.4559V24.9458C333.534 24.2458 333.28 23.5771 332.815 23.0651C329.675 19.6066 325.245 16.8691 319.652 14.9465L319.674 14.957Z" fill="white"/>
<path d="M410.261 17.9453C403.482 13.9957 395.706 12 387.132 12C378.557 12 370.937 13.9957 364.096 17.9453C357.265 21.8948 351.784 27.3804 347.798 34.2555C343.811 41.1307 341.787 49.1239 341.787 58.0052C341.787 66.8865 343.811 74.7126 347.787 81.6504C351.774 88.5883 357.255 94.1052 364.086 98.0547C370.916 102.004 378.661 104 387.121 104C395.582 104 403.482 101.994 410.25 98.0547C417.019 94.1052 422.469 88.5883 426.455 81.6504C430.442 74.7126 432.456 66.7612 432.456 58.0052C432.456 49.2493 430.431 41.1307 426.445 34.2555C422.469 27.3908 417.019 21.9053 410.25 17.9557L410.261 17.9453ZM387.132 87.0106C381.92 87.0106 377.197 85.7463 373.117 83.2491C369.017 80.7518 365.726 77.2934 363.359 72.9885C360.982 68.6733 359.777 63.6266 359.777 57.9948C359.777 52.363 360.982 47.2745 363.359 42.8965C365.726 38.5395 369.006 35.0914 373.096 32.6569C377.187 30.2224 381.91 28.979 387.132 28.979C392.353 28.979 397.066 30.2119 401.167 32.6569C405.257 35.0914 408.538 38.5395 410.904 42.8965C413.282 47.2745 414.486 52.363 414.486 57.9948C414.486 63.6266 413.282 68.6733 410.904 72.9885C408.527 77.2934 405.247 80.7518 401.146 83.2491C397.056 85.7463 392.343 87.0106 387.132 87.0106Z" fill="white"/>
<path d="M489.114 13.284C486.305 12.4315 483.232 12 479.992 12C475.668 12 471.385 13.6839 467.261 17.0097C465.914 18.0937 464.641 19.3145 463.452 20.6722V16.6939C463.452 15.1363 462.179 13.8628 460.622 13.8628H448.238C446.681 13.8628 445.408 15.1363 445.408 16.6939V99.9741C445.408 101.532 446.681 102.805 448.238 102.805H460.622C462.179 102.805 463.452 101.532 463.452 99.9741V48.0042C463.452 47.9306 463.463 47.8569 463.463 47.7832C463.536 44.3101 463.926 41.1528 464.62 38.3743C465.346 35.4696 466.661 33.1542 468.524 31.5124C470.333 29.9127 472.932 29.1023 476.257 29.1023C478.519 29.1023 480.381 29.4075 481.802 30.0074C483.022 30.5231 484.4 31.3229 485.884 32.3543C486.505 32.7858 487.262 32.9542 488.009 32.8069C488.756 32.6701 489.419 32.228 489.84 31.5966L496.742 21.251C497.499 20.1038 497.341 18.5988 496.363 17.6516C494.154 15.5362 491.713 14.0628 489.103 13.2629L489.114 13.284Z" fill="white"/>
<path d="M577 33.2396C573.65 26.4488 568.776 21.1519 562.516 17.4953C556.277 13.8492 548.715 12 540.04 12C531.364 12 523.612 13.9432 517.006 17.767C510.389 21.6012 505.179 27.0443 501.524 33.9396C497.88 40.8035 496.041 48.8898 496.041 58C496.041 67.1102 497.816 74.998 501.335 81.8515C504.864 88.7468 509.874 94.2108 516.239 98.1181C522.604 102.015 529.988 104 538.191 104C547.591 104 555.889 102.099 562.853 98.3479C569.47 94.7854 575.099 89.5199 579.574 82.7082C579.983 82.0813 580.13 81.3186 579.962 80.5873C579.794 79.8456 579.353 79.2083 578.702 78.8008L568.755 72.5637C567.442 71.7384 565.699 72.1354 564.869 73.4517C562.044 77.8605 558.63 81.2142 554.723 83.429C550.511 85.811 545.575 87.0229 540.04 87.0229C534.504 87.0229 529.778 85.8528 525.955 83.544C522.153 81.256 519.222 77.871 517.258 73.4935C515.924 70.5369 515.021 67.0997 514.569 63.2655H579.049C580.54 63.2655 581.769 62.1058 581.863 60.6327L581.905 60.0581C581.968 59.097 582 58.1567 582 57.2687C582 48.0645 580.319 39.9782 577 33.2501V33.2396ZM517.521 41.1588C519.548 36.9484 522.478 33.6888 526.228 31.4427C529.998 29.1965 534.641 28.0472 540.04 28.0472C544.577 28.0472 548.568 29.0397 551.908 30.983C555.248 32.9366 557.906 35.6634 559.807 39.1006C561.172 41.5662 562.054 44.3975 562.443 47.5526H515.315C515.851 45.2124 516.586 43.0811 517.51 41.1588H517.521Z" fill="white"/>
<defs>
<linearGradient id="paint0_linear_325_2976" x1="14.6651" y1="107.016" x2="142.515" y2="1.00212" gradientUnits="userSpaceOnUse">
<stop offset="0.520833" stop-color="#D9297D"/>
<stop offset="1" stop-color="#F18520"/>
</linearGradient>
<linearGradient id="paint1_linear_325_2976" x1="14.6651" y1="107.016" x2="142.515" y2="1.00212" gradientUnits="userSpaceOnUse">
<stop offset="0.520833" stop-color="#D9297D"/>
<stop offset="1" stop-color="#F18520"/>
</linearGradient>
<linearGradient id="paint2_linear_325_2976" x1="14.6651" y1="107.016" x2="142.515" y2="1.00212" gradientUnits="userSpaceOnUse">
<stop offset="0.520833" stop-color="#D9297D"/>
<stop offset="1" stop-color="#F18520"/>
</linearGradient>
</defs>
</svg>
