<svg width="1440" height="253" viewBox="0 0 1440 253" fill="none" xmlns="http://www.w3.org/2000/svg">
<path d="M1011.33 85.7114C999.493 87.8654 991.51 87.9496 986.925 85.97C979.912 82.9416 981.19 75.1258 982.541 66.8497C984.177 56.8361 986.032 45.4875 973.39 39.8684C962.601 35.0759 942.902 35.1469 913.17 40.086C913.168 40.086 566.111 98.1222 565.421 98.2377C565.4 98.2412 565.409 98.2396 565.388 98.243C548.942 100.913 538.162 100.912 532.439 98.2374C524.598 94.5743 526.648 85.987 528.821 76.8974C531.42 66.012 534.365 53.675 520.629 47.0648C507.641 40.8156 481.695 40.6521 441.306 46.565C259.505 73.1786 1.70156 111.386 -14.5822 113.8C-15.0285 113.866 -15.2058 114.321 -15.0328 114.738C-14.911 115.031 -14.7945 115.232 -14.4803 115.185C-3.38099 113.54 258.067 74.7876 441.845 47.8861C481.386 42.0984 506.605 42.1716 518.953 48.112C531.737 54.2628 529.004 65.7077 526.362 76.7761C524.101 86.2379 521.969 95.1756 530.79 99.2971C537.177 102.281 548.706 102.364 566.037 99.547C566.046 99.5457 913.628 41.4214 913.792 41.394C913.797 41.3931 913.795 41.3935 913.8 41.3927C942.692 36.5941 961.658 36.4488 971.786 40.9483C983.449 46.1306 981.734 56.6306 980.073 66.7843C978.66 75.4309 977.326 83.5981 985.346 87.0603C990.61 89.3331 999.333 89.316 1012.01 87.0079C1073.74 75.7756 1430.99 5.18003 1449.84 1.45582C1450.31 1.36208 1450.33 0.872923 1450.08 0.455474C1449.93 0.196829 1449.87 0.0152151 1449.58 0.0733034C1438.02 2.35718 1073.7 74.3624 1011.33 85.7114Z" fill="url(#paint0_linear_302_3102)"/>
<path d="M1006.27 103.56C1006.27 103.56 1006.27 103.56 1006.27 103.56C994.541 105.879 986.626 106.079 982.068 104.17C975.059 101.237 976.312 93.3466 977.641 84.9938C979.249 74.879 981.073 63.4128 968.381 57.945C957.737 53.359 938.496 53.6474 909.573 58.8302C908.9 58.9508 908.223 59.0745 907.55 59.1975C887.172 62.9232 563.541 122.094 562.876 122.215C562.854 122.219 562.864 122.218 562.843 122.221C546.552 125.12 535.858 125.275 530.159 122.693C522.302 119.134 524.325 110.453 526.468 101.263C529.037 90.2475 531.947 77.762 518.122 71.3137C505.143 65.2602 479.371 65.4654 439.334 71.9402C258.797 101.14 2.87273 143.006 -13.8138 145.735C-14.2691 145.81 -14.4592 146.288 -14.2635 146.706C-14.1315 146.988 -14.0169 147.178 -13.7098 147.128C-2.86311 145.354 257.171 102.811 439.934 73.2499C479.116 66.913 504.152 66.6261 516.471 72.3725C529.318 78.3644 526.618 89.9453 524.008 101.145C521.778 110.712 519.672 119.749 528.536 123.764C534.918 126.654 546.373 126.573 563.553 123.514C563.562 123.512 909.076 60.3393 909.239 60.3095C909.243 60.3086 909.241 60.309 909.246 60.3081C937.886 55.1043 956.713 54.6882 966.806 59.0352C978.49 64.0703 976.727 75.1538 975.174 84.9326C973.785 93.6608 972.475 101.907 980.516 105.273C985.772 107.473 994.44 107.333 1007.02 104.846C1068.34 92.7194 1422.99 16.9736 1442.17 12.8759C1442.65 12.773 1442.67 12.2672 1442.4 11.8518C1442.25 11.6026 1442.18 11.428 1441.9 11.4897C1430.53 13.9183 1068.28 91.2979 1006.27 103.56C1006.27 103.56 1006.27 103.56 1006.27 103.56Z" fill="url(#paint1_linear_302_3102)"/>
<path d="M1001.1 121.716C1001.1 121.717 1001.1 121.717 1001.1 121.717C989.489 124.221 981.641 124.55 977.115 122.719C970.118 119.89 971.346 111.921 972.647 103.483C974.223 93.2554 976.006 81.6637 963.277 76.3653C952.676 71.953 933.609 72.5382 905.014 78.1571C904.265 78.3043 903.548 78.4482 902.799 78.5983C881.767 82.8158 561.189 147.103 560.515 147.238C560.494 147.243 560.503 147.241 560.482 147.245C544.357 150.398 533.757 150.726 528.088 148.245C520.22 144.805 522.213 136.019 524.323 126.719C526.855 115.562 529.724 102.915 515.816 96.6506C502.851 90.8112 477.27 91.4268 437.613 98.5326C258.489 130.625 4.64561 176.58 -12.4568 179.676C-12.9213 179.76 -13.1255 180.263 -12.9057 180.681C-12.7637 180.951 -12.6504 181.131 -12.3503 181.077C-1.75188 179.158 256.674 132.37 438.289 99.8316C477.085 92.8803 501.917 92.1917 514.201 97.7247C527.099 103.534 524.438 115.264 521.864 126.607C519.669 136.29 517.592 145.436 526.5 149.331C532.873 152.118 544.244 151.854 561.265 148.523C561.275 148.52 904.475 79.6962 904.64 79.6631C904.645 79.6621 904.643 79.6626 904.648 79.6616C933.016 74.0058 951.69 73.2874 961.734 77.4679C973.426 82.3345 971.701 93.5375 970.177 103.423C968.818 112.243 967.535 120.572 975.595 123.832C980.839 125.953 989.452 125.675 1001.92 122.986C1062.78 109.861 1414.65 30.5426 1434.15 26.1478C1434.64 26.0377 1434.66 25.516 1434.38 25.1018C1434.22 24.8601 1434.15 24.691 1433.87 24.7553C1422.65 27.2844 1062.7 108.431 1001.1 121.716C1001.1 121.716 1001.1 121.716 1001.1 121.716Z" fill="url(#paint2_linear_302_3102)"/>
<path d="M996.373 143.491C996.372 143.49 996.371 143.49 996.371 143.49C984.851 146.155 977.065 146.594 972.566 144.828C965.587 142.09 966.792 134.052 968.069 125.543C969.616 115.221 971.368 103.522 958.612 98.3711C948.047 94.105 929.131 94.9449 900.812 100.942C899.996 101.115 899.241 101.278 898.426 101.455C876.828 106.122 558.902 174.83 558.228 174.976C558.206 174.981 558.216 174.979 558.194 174.983C542.208 178.357 531.69 178.834 526.046 176.44C518.178 173.103 520.144 164.229 522.225 154.835C524.724 143.556 527.556 130.771 513.592 124.668C500.642 119.01 475.225 119.98 435.885 127.631C257.989 162.23 5.96799 211.72 -11.5153 215.154C-11.9883 215.247 -12.2064 215.773 -11.9651 216.191C-11.8148 216.45 -11.7025 216.623 -11.4081 216.565C-1.0107 214.523 256.008 164.047 436.62 128.919C475.092 121.437 499.75 120.401 512 125.754C524.93 131.404 522.305 143.261 519.764 154.728C517.596 164.509 515.55 173.749 524.482 177.538C530.847 180.238 542.149 179.817 559.037 176.249C559.046 176.247 900.235 102.513 900.395 102.478C900.4 102.477 900.398 102.478 900.403 102.477C928.55 96.4258 947.094 95.4487 957.096 99.4882C968.79 104.209 967.095 115.516 965.6 125.49C964.266 134.387 963.008 142.79 971.076 145.956C976.31 148.009 984.871 147.614 997.25 144.749C1057.7 130.76 1406.79 44.3104 1426.79 39.3546C1427.29 39.231 1427.32 38.6839 1427.01 38.2739C1426.84 38.0452 1426.77 37.8849 1426.49 37.9539C1415.51 40.6735 1057.63 129.316 996.375 143.491C996.374 143.491 996.374 143.491 996.373 143.491Z" fill="url(#paint3_linear_302_3102)"/>
<path d="M991.621 164.377C991.62 164.377 991.62 164.377 991.619 164.377C980.197 167.218 972.472 167.774 968.006 166.077C961.053 163.437 962.231 155.326 963.478 146.741C964.993 136.319 966.713 124.505 953.943 119.515C943.421 115.403 924.664 116.516 896.63 122.921C895.744 123.124 894.945 123.31 894.059 123.517C871.855 128.695 556.799 202.167 556.123 202.325C556.101 202.33 556.111 202.328 556.089 202.333C540.246 205.946 529.812 206.584 524.197 204.281C516.335 201.054 518.271 192.086 520.322 182.592C522.786 171.184 525.578 158.254 511.561 152.328C498.637 146.864 473.392 148.214 434.384 156.455C257.806 193.769 7.73264 247.087 -10.1207 250.894C-10.6023 250.997 -10.8325 251.548 -10.5683 251.964C-10.41 252.213 -10.2986 252.376 -10.01 252.315C0.182555 250.142 255.667 195.664 435.186 157.731C473.322 149.673 497.795 148.265 510.003 153.427C522.956 158.902 520.25 171.434 517.864 182.488C515.729 192.375 513.711 201.714 522.668 205.39C529.022 207.998 540.251 207.407 556.998 203.583C557.007 203.581 896.013 124.525 896.175 124.487C896.18 124.485 896.178 124.486 896.183 124.485C924.093 118.009 942.502 116.752 952.456 120.642C964.132 125.206 962.472 136.619 961.009 146.689C959.704 155.668 958.47 164.149 966.543 167.213C971.767 169.196 980.274 168.674 992.561 165.62C1052.58 150.693 1398.95 58.8564 1419.29 53.4635C1419.79 53.3294 1419.82 52.764 1419.49 52.3579C1419.31 52.1376 1419.24 51.9827 1418.97 52.0555C1408.14 54.9285 1052.49 149.238 991.623 164.377C991.622 164.377 991.622 164.377 991.621 164.377Z" fill="url(#paint4_linear_302_3102)"/>
<g filter="url(#filter0_b_302_3102)">
<path d="M381.709 155.714V153.636L375.059 149.818L381.709 146V143.922L372 149.558V150.078L381.709 155.714Z" fill="#74402F"/>
<path d="M383.552 162.026H385.473L392.831 138.026H390.909L383.552 162.026Z" fill="#74402F"/>
<path d="M395.291 155.714L405 150.078V149.558L395.291 143.922V146L401.941 149.818L395.291 153.636V155.714Z" fill="#74402F"/>
</g>
<g filter="url(#filter1_b_302_3102)">
<path d="M1069 143.026L1085 133.945V133.108L1069 124.026V127.374L1079.96 133.526L1069 139.678V143.026Z" fill="#74402F"/>
</g>
<g filter="url(#filter2_b_302_3102)">
<path d="M460 62.026L450 56.2903V55.7617L460 50.026V52.1405L453.151 56.026L460 59.9115V62.026Z" fill="#B76240"/>
</g>
<path d="M992 61.0573V59.025H979V61.0573H992ZM992 66.025V63.9928H979V66.025H992Z" fill="#693B2D"/>
<mask id="mask0_302_3102" style="mask-type:alpha" maskUnits="userSpaceOnUse" x="917" y="36" width="16" height="16">
<rect x="917" y="36.025" width="15.5659" height="15.5659" fill="#D9D9D9"/>
</mask>
<g mask="url(#mask0_302_3102)">
<path d="M924.783 49.2075L924.069 48.5589C922.988 47.586 922.096 46.7483 921.394 46.0456C920.691 45.343 920.134 44.7187 919.724 44.1726C919.313 43.6269 919.026 43.1296 918.864 42.6808C918.702 42.2324 918.621 41.7758 918.621 41.311C918.621 40.3922 918.932 39.6219 919.554 39.0001C920.175 38.3788 920.945 38.0681 921.864 38.0681C922.426 38.0681 922.961 38.2004 923.469 38.465C923.977 38.7301 924.415 39.1112 924.783 39.6085C925.15 39.1112 925.588 38.7301 926.096 38.465C926.604 38.2004 927.139 38.0681 927.701 38.0681C928.62 38.0681 929.39 38.3788 930.011 39.0001C930.633 39.6219 930.944 40.3922 930.944 41.311C930.944 41.7758 930.863 42.2324 930.701 42.6808C930.539 43.1296 930.252 43.6269 929.842 44.1726C929.431 44.7187 928.874 45.343 928.171 46.0456C927.469 46.7483 926.577 47.586 925.496 48.5589L924.783 49.2075ZM924.783 47.8941C925.82 46.9645 926.674 46.1646 927.344 45.4944C928.015 44.8242 928.544 44.243 928.934 43.751C929.323 43.2593 929.593 42.8244 929.744 42.446C929.896 42.0677 929.971 41.6894 929.971 41.311C929.971 40.6624 929.755 40.122 929.323 39.6896C928.89 39.2572 928.35 39.041 927.701 39.041C927.193 39.041 926.72 39.1869 926.282 39.4788C925.845 39.7706 925.501 40.176 925.253 40.6949H924.312C924.053 40.1652 923.707 39.757 923.275 39.4703C922.842 39.1841 922.372 39.041 921.864 39.041C921.215 39.041 920.675 39.2572 920.243 39.6896C919.81 40.122 919.594 40.6624 919.594 41.311C919.594 41.6894 919.67 42.0677 919.821 42.446C919.972 42.8244 920.243 43.2593 920.632 43.751C921.021 44.243 921.551 44.8213 922.221 45.4859C922.891 46.1509 923.745 46.9537 924.783 47.8941Z" fill="#FF8652"/>
</g>
<path d="M648.999 180.244V178.49C648.999 178.282 648.846 178.157 648.655 178.21L646.808 178.725L643.648 179.603V178.318C643.648 178.11 643.495 177.984 643.304 178.037L638.476 179.383C638.285 179.436 638.131 179.648 638.131 179.856V181.791H638.125L638.12 189.779C637.619 189.71 637.036 189.75 636.415 189.924C634.53 190.449 633 191.978 633 193.337C633 194.697 634.526 195.372 636.413 194.847C638.239 194.338 639.725 192.888 639.819 191.563L639.824 191.488C639.824 191.469 639.824 191.451 639.824 191.432C639.824 191.412 639.824 191.397 639.824 191.379L639.83 181.933L641.602 181.438L643.484 180.915V182.202C643.484 182.41 643.636 182.535 643.827 182.482L647.295 181.514L647.29 188.705C646.789 188.635 646.206 188.676 645.585 188.85C643.7 189.376 642.17 190.904 642.17 192.263C642.17 193.623 643.696 194.298 645.583 193.772C647.409 193.264 648.895 191.814 648.989 190.488L648.994 190.414C648.994 190.395 648.994 190.377 648.994 190.358C648.994 190.339 648.994 190.322 648.994 190.305L649 180.242L648.999 180.244Z" fill="#EA794D"/>
<defs>
<filter id="filter0_b_302_3102" x="302" y="68.026" width="173" height="164" filterUnits="userSpaceOnUse" color-interpolation-filters="sRGB">
<feFlood flood-opacity="0" result="BackgroundImageFix"/>
<feGaussianBlur in="BackgroundImageFix" stdDeviation="35"/>
<feComposite in2="SourceAlpha" operator="in" result="effect1_backgroundBlur_302_3102"/>
<feBlend mode="normal" in="SourceGraphic" in2="effect1_backgroundBlur_302_3102" result="shape"/>
</filter>
<filter id="filter1_b_302_3102" x="999" y="54.026" width="156" height="159" filterUnits="userSpaceOnUse" color-interpolation-filters="sRGB">
<feFlood flood-opacity="0" result="BackgroundImageFix"/>
<feGaussianBlur in="BackgroundImageFix" stdDeviation="35"/>
<feComposite in2="SourceAlpha" operator="in" result="effect1_backgroundBlur_302_3102"/>
<feBlend mode="normal" in="SourceGraphic" in2="effect1_backgroundBlur_302_3102" result="shape"/>
</filter>
<filter id="filter2_b_302_3102" x="380" y="-19.974" width="150" height="152" filterUnits="userSpaceOnUse" color-interpolation-filters="sRGB">
<feFlood flood-opacity="0" result="BackgroundImageFix"/>
<feGaussianBlur in="BackgroundImageFix" stdDeviation="35"/>
<feComposite in2="SourceAlpha" operator="in" result="effect1_backgroundBlur_302_3102"/>
<feBlend mode="normal" in="SourceGraphic" in2="effect1_backgroundBlur_302_3102" result="shape"/>
</filter>
<linearGradient id="paint0_linear_302_3102" x1="-15.9207" y1="97.4871" x2="1436.97" y2="-79.7183" gradientUnits="userSpaceOnUse">
<stop offset="0.104167" stop-color="white" stop-opacity="0"/>
<stop offset="0.34375" stop-color="#D9297D"/>
<stop offset="0.546875" stop-color="#F18520"/>
<stop offset="0.744792" stop-color="#2FCEFF"/>
<stop offset="0.895833" stop-color="white" stop-opacity="0"/>
</linearGradient>
<linearGradient id="paint1_linear_302_3102" x1="-15.5941" y1="117.63" x2="1433.71" y2="-38.4697" gradientUnits="userSpaceOnUse">
<stop offset="0.104167" stop-color="white" stop-opacity="0"/>
<stop offset="0.34375" stop-color="#D9297D"/>
<stop offset="0.546875" stop-color="#F18520"/>
<stop offset="0.744792" stop-color="#2FCEFF"/>
<stop offset="0.895833" stop-color="white" stop-opacity="0"/>
</linearGradient>
<linearGradient id="paint2_linear_302_3102" x1="-14.5271" y1="144.467" x2="1429.79" y2="10.3046" gradientUnits="userSpaceOnUse">
<stop offset="0.104167" stop-color="white" stop-opacity="0"/>
<stop offset="0.34375" stop-color="#D9297D"/>
<stop offset="0.546875" stop-color="#F18520"/>
<stop offset="0.744792" stop-color="#2FCEFF"/>
<stop offset="0.895833" stop-color="white" stop-opacity="0"/>
</linearGradient>
<linearGradient id="paint3_linear_302_3102" x1="-13.8904" y1="172.309" x2="1425.16" y2="53.8206" gradientUnits="userSpaceOnUse">
<stop offset="0.104167" stop-color="white" stop-opacity="0"/>
<stop offset="0.34375" stop-color="#D9297D"/>
<stop offset="0.546875" stop-color="#F18520"/>
<stop offset="0.744792" stop-color="#2FCEFF"/>
<stop offset="0.895833" stop-color="white" stop-opacity="0"/>
</linearGradient>
<linearGradient id="paint4_linear_302_3102" x1="-12.7947" y1="200.625" x2="1419.48" y2="93.1361" gradientUnits="userSpaceOnUse">
<stop offset="0.104167" stop-color="white" stop-opacity="0"/>
<stop offset="0.34375" stop-color="#D9297D"/>
<stop offset="0.546875" stop-color="#F18520"/>
<stop offset="0.744792" stop-color="#2FCEFF"/>
<stop offset="0.895833" stop-color="white" stop-opacity="0"/>
</linearGradient>
</defs>
</svg>
