<svg width="70" height="26" viewBox="0 0 70 26" fill="none" xmlns="http://www.w3.org/2000/svg">
<path d="M56.2717 25.6438C56.0069 25.3767 55.8744 25.0574 55.8744 24.6858C55.8744 24.3153 55.9922 23.9966 56.2276 23.7295L65.5858 14.3356L1.32432 14.0827C0.971177 14.0827 0.662179 13.9563 0.397324 13.7034C0.132469 13.4517 4.11045e-05 13.133 4.11045e-05 12.7471C4.11045e-05 12.3613 0.132469 12.0419 0.397324 11.789C0.662179 11.5374 0.971177 11.4115 1.32432 11.4115L65.5858 11.6644L56.2276 2.27055C55.9922 2.00342 55.8744 1.68466 55.8744 1.31425C55.8744 0.942649 56.0069 0.623288 56.2717 0.356165C56.5366 0.118722 56.8456 0 57.1987 0C57.5519 0 57.8608 0.118722 58.1257 0.356165L69.5145 11.887C69.691 12.0354 69.8164 12.2058 69.8906 12.3981C69.9635 12.5916 70 12.7922 70 13C70 13.2078 69.9635 13.4078 69.8906 13.6001C69.8164 13.7937 69.691 13.9646 69.5145 14.113L58.1257 25.6438C57.8608 25.8813 57.5519 26 57.1987 26C56.8456 26 56.5366 25.8813 56.2717 25.6438Z" fill="url(#paint0_linear_559_3476)"/>
<defs>
<linearGradient id="paint0_linear_559_3476" x1="70.0395" y1="12.6667" x2="2.3767e-07" y2="12.6667" gradientUnits="userSpaceOnUse">
<stop stop-color="#151523"/>
<stop offset="1" stop-color="white"/>
</linearGradient>
</defs>
</svg>
