<svg width="13" height="13" viewBox="0 0 13 13" fill="none" xmlns="http://www.w3.org/2000/svg">
<path d="M11.2484 2.8L1.94844 12.125C1.79844 12.275 1.61944 12.35 1.41144 12.35C1.20277 12.35 1.02344 12.275 0.873437 12.125C0.723437 11.975 0.648438 11.7957 0.648438 11.587C0.648438 11.379 0.723437 11.2 0.873437 11.05L10.1984 1.75H1.99844C1.78177 1.75 1.60277 1.679 1.46144 1.537C1.31944 1.39567 1.24844 1.21667 1.24844 1C1.24844 0.783333 1.31944 0.604333 1.46144 0.463C1.60277 0.321 1.78177 0.25 1.99844 0.25H11.8484C12.0984 0.25 12.3111 0.337333 12.4864 0.512C12.6611 0.687333 12.7484 0.9 12.7484 1.15V11C12.7484 11.2167 12.6778 11.396 12.5364 11.538C12.3944 11.6793 12.2151 11.75 11.9984 11.75C11.7818 11.75 11.6024 11.6793 11.4604 11.538C11.3191 11.396 11.2484 11.2167 11.2484 11V2.8Z" fill="#F18520"/>
</svg>
