<svg width="15" height="16" viewBox="0 0 15 16" fill="none" xmlns="http://www.w3.org/2000/svg">
<path d="M7.1 15.1C6.95 14.95 6.875 14.7706 6.875 14.562C6.875 14.354 6.94167 14.175 7.075 14.025L12.375 8.74995H0.75C0.55 8.74995 0.375 8.67895 0.225 8.53695C0.0749999 8.39562 0 8.21662 0 7.99995C0 7.78328 0.0749999 7.60395 0.225 7.46195C0.375 7.32062 0.55 7.24995 0.75 7.24995H12.375L7.075 1.97495C6.94167 1.82495 6.875 1.64595 6.875 1.43795C6.875 1.22928 6.95 1.04995 7.1 0.899951C7.25 0.766618 7.425 0.699951 7.625 0.699951C7.825 0.699951 8 0.766618 8.15 0.899951L14.6 7.37495C14.7 7.45828 14.771 7.55395 14.813 7.66195C14.8543 7.77062 14.875 7.88328 14.875 7.99995C14.875 8.11662 14.8543 8.22895 14.813 8.33695C14.771 8.44562 14.7 8.54162 14.6 8.62495L8.15 15.1C8 15.2333 7.825 15.3 7.625 15.3C7.425 15.3 7.25 15.2333 7.1 15.1Z" fill="#F18520"/>
</svg>
