<svg width="18" height="20" viewBox="0 0 18 20" fill="none" xmlns="http://www.w3.org/2000/svg">
<path opacity="0.6" d="M9 12.075C8.75 12.075 8.54167 11.9873 8.375 11.812C8.20833 11.6373 8.125 11.4333 8.125 11.2C8.125 10.95 8.20833 10.7373 8.375 10.562C8.54167 10.3873 8.75 10.3 9 10.3C9.25 10.3 9.45833 10.3873 9.625 10.562C9.79167 10.7373 9.875 10.95 9.875 11.2C9.875 11.4333 9.79167 11.6373 9.625 11.812C9.45833 11.9873 9.25 12.075 9 12.075ZM5 12.075C4.75 12.075 4.54167 11.9873 4.375 11.812C4.20833 11.6373 4.125 11.4333 4.125 11.2C4.125 10.95 4.20833 10.7373 4.375 10.562C4.54167 10.3873 4.75 10.3 5 10.3C5.25 10.3 5.45833 10.3873 5.625 10.562C5.79167 10.7373 5.875 10.95 5.875 11.2C5.875 11.4333 5.79167 11.6373 5.625 11.812C5.45833 11.9873 5.25 12.075 5 12.075ZM13 12.075C12.75 12.075 12.5417 11.9873 12.375 11.812C12.2083 11.6373 12.125 11.4333 12.125 11.2C12.125 10.95 12.2083 10.7373 12.375 10.562C12.5417 10.3873 12.75 10.3 13 10.3C13.25 10.3 13.4583 10.3873 13.625 10.562C13.7917 10.7373 13.875 10.95 13.875 11.2C13.875 11.4333 13.7917 11.6373 13.625 11.812C13.4583 11.9873 13.25 12.075 13 12.075ZM9 16C8.75 16 8.54167 15.9127 8.375 15.738C8.20833 15.5627 8.125 15.3583 8.125 15.125C8.125 14.875 8.20833 14.6627 8.375 14.488C8.54167 14.3127 8.75 14.225 9 14.225C9.25 14.225 9.45833 14.3127 9.625 14.488C9.79167 14.6627 9.875 14.875 9.875 15.125C9.875 15.3583 9.79167 15.5627 9.625 15.738C9.45833 15.9127 9.25 16 9 16ZM5 16C4.75 16 4.54167 15.9127 4.375 15.738C4.20833 15.5627 4.125 15.3583 4.125 15.125C4.125 14.875 4.20833 14.6627 4.375 14.488C4.54167 14.3127 4.75 14.225 5 14.225C5.25 14.225 5.45833 14.3127 5.625 14.488C5.79167 14.6627 5.875 14.875 5.875 15.125C5.875 15.3583 5.79167 15.5627 5.625 15.738C5.45833 15.9127 5.25 16 5 16ZM13 16C12.75 16 12.5417 15.9127 12.375 15.738C12.2083 15.5627 12.125 15.3583 12.125 15.125C12.125 14.875 12.2083 14.6627 12.375 14.488C12.5417 14.3127 12.75 14.225 13 14.225C13.25 14.225 13.4583 14.3127 13.625 14.488C13.7917 14.6627 13.875 14.875 13.875 15.125C13.875 15.3583 13.7917 15.5627 13.625 15.738C13.4583 15.9127 13.25 16 13 16ZM2.3 19.5C1.8 19.5 1.375 19.325 1.025 18.975C0.675 18.625 0.5 18.2 0.5 17.7V4.3C0.5 3.8 0.675 3.375 1.025 3.025C1.375 2.675 1.8 2.5 2.3 2.5H3.7V1.15C3.7 0.933333 3.77067 0.75 3.912 0.6C4.054 0.45 4.23333 0.375 4.45 0.375C4.68333 0.375 4.87067 0.45 5.012 0.6C5.154 0.75 5.225 0.933333 5.225 1.15V2.5H12.8V1.125C12.8 0.925 12.875 0.75 13.025 0.6C13.175 0.45 13.35 0.375 13.55 0.375C13.7667 0.375 13.9457 0.45 14.087 0.6C14.229 0.75 14.3 0.925 14.3 1.125V2.5H15.7C16.2 2.5 16.625 2.675 16.975 3.025C17.325 3.375 17.5 3.8 17.5 4.3V17.7C17.5 18.2 17.325 18.625 16.975 18.975C16.625 19.325 16.2 19.5 15.7 19.5H2.3ZM2.3 18H15.7C15.7833 18 15.8543 17.971 15.913 17.913C15.971 17.8543 16 17.7833 16 17.7V8.3H2V17.7C2 17.7833 2.02933 17.8543 2.088 17.913C2.146 17.971 2.21667 18 2.3 18ZM2 6.8H16V4.3C16 4.21667 15.971 4.146 15.913 4.088C15.8543 4.02933 15.7833 4 15.7 4H2.3C2.21667 4 2.146 4.02933 2.088 4.088C2.02933 4.146 2 4.21667 2 4.3V6.8Z" fill="#151523"/>
</svg>
