<svg width="48" height="48" viewBox="0 0 48 48" fill="none" xmlns="http://www.w3.org/2000/svg">
<mask id="mask0_575_3448" style="mask-type:alpha" maskUnits="userSpaceOnUse" x="0" y="0" width="48" height="48">
<rect width="48" height="48" fill="#D9D9D9"/>
</mask>
<g mask="url(#mask0_575_3448)">
<path d="M18.6037 43V36.1985H14.0849C13.4315 36.1985 12.8508 35.9537 12.3427 35.464C11.8345 34.9743 11.5805 34.4029 11.5805 33.75V27.0574H9.6205C8.96717 27.0574 8.49533 26.7581 8.20496 26.1596C7.9146 25.561 7.93275 24.9353 8.25941 24.2824L11.6894 18.2426C12.379 14.7603 14.0304 11.8493 16.6437 9.50956C19.257 7.16985 22.324 6 25.8447 6C29.8009 6 33.1492 7.36936 35.8895 10.1081C38.6298 12.8468 40 16.175 40 20.0926C40 23.0309 39.1198 25.6426 37.3595 27.9279C35.5991 30.2132 33.376 31.9907 30.6902 33.2603V43H18.6037ZM21.0536 40.5515H28.2402V31.6824L29.4924 31.0838C31.779 30.0319 33.6936 28.5627 35.2362 26.6765C36.7788 24.7902 37.55 22.6137 37.55 20.1471C37.55 16.8824 36.4158 14.1164 34.1473 11.8493C31.8788 9.58211 29.1113 8.44853 25.8447 8.44853C22.7958 8.44853 20.1463 9.41887 17.8959 11.3596C15.6456 13.3002 14.4297 15.7578 14.2482 18.7324L10.9816 24.6088H14.0849V33.75H21.0536V40.5515Z" fill="#151523"/>
</g>
<path d="M19.423 27L24.977 21.4918L30.5311 27L32 25.577L26.4459 20.023L32 14.4689L30.5311 13L24.977 18.5541L19.423 13L18 14.4689L23.5082 20.023L18 25.577L19.423 27Z" fill="#151523"/>
</svg>
