<svg width="48" height="48" viewBox="0 0 48 48" fill="none" xmlns="http://www.w3.org/2000/svg">
<path d="M20.55 32.25L26.6 26.25L32.65 32.25L34.25 30.7L28.2 24.65L34.25 18.6L32.65 17L26.6 23.05L20.55 17L19 18.6L25 24.65L19 30.7L20.55 32.25Z" fill="#151523"/>
<mask id="mask0_575_3456" style="mask-type:alpha" maskUnits="userSpaceOnUse" x="0" y="0" width="48" height="48">
<rect width="48" height="48" fill="#D9D9D9"/>
</mask>
<g mask="url(#mask0_575_3456)">
<path d="M38.1 38.45H14.4C13.6333 38.45 12.9667 38.1667 12.4 37.6C11.8333 37.0333 11.55 36.3667 11.55 35.6V5.9C11.55 5.1 11.8333 4.41667 12.4 3.85C12.9667 3.28333 13.6333 3 14.4 3H29.6C30 3 30.3833 3.08333 30.75 3.25C31.1167 3.41667 31.4167 3.61667 31.65 3.85L40.15 12.35C40.3833 12.5833 40.5833 12.8833 40.75 13.25C40.9167 13.6167 41 14 41 14.4V35.6C41 36.3667 40.7167 37.0333 40.15 37.6C39.5833 38.1667 38.9 38.45 38.1 38.45ZM29.65 5.25H14.4C14.2667 5.25 14.1333 5.31667 14 5.45C13.8667 5.58333 13.8 5.73333 13.8 5.9V35.6C13.8 35.7333 13.8667 35.8667 14 36C14.1333 36.1333 14.2667 36.2 14.4 36.2H38.1C38.2667 36.2 38.4167 36.1333 38.55 36C38.6833 35.8667 38.75 35.7333 38.75 35.6V14.2H31.1C30.7 14.2 30.3583 14.0583 30.075 13.775C29.7917 13.4917 29.65 13.15 29.65 12.75V5.25ZM7.9 45C7.1 45 6.41667 44.7167 5.85 44.15C5.28333 43.5833 5 42.9 5 42.1V14.7C5 14.3667 5.10833 14.0917 5.325 13.875C5.54167 13.6583 5.81667 13.55 6.15 13.55C6.48333 13.55 6.75 13.6583 6.95 13.875C7.15 14.0917 7.25 14.3667 7.25 14.7V42.1C7.25 42.2667 7.31667 42.4167 7.45 42.55C7.58333 42.6833 7.73333 42.75 7.9 42.75H29.25C29.5833 42.75 29.8583 42.8583 30.075 43.075C30.2917 43.2917 30.4 43.55 30.4 43.85C30.4 44.1833 30.2917 44.4583 30.075 44.675C29.8583 44.8917 29.5833 45 29.25 45H7.9Z" fill="#151523"/>
</g>
</svg>
