<svg width="48" height="48" viewBox="0 0 48 48" fill="none" xmlns="http://www.w3.org/2000/svg">
<mask id="mask0_578_3500" style="mask-type:alpha" maskUnits="userSpaceOnUse" x="0" y="0" width="48" height="48">
<rect width="48" height="48" fill="#D9D9D9"/>
</mask>
<g mask="url(#mask0_578_3500)">
<path d="M11.9 43C11.1 43 10.4167 42.7167 9.85 42.15C9.28333 41.5833 9 40.9 9 40.1V7.9C9 7.1 9.28333 6.41667 9.85 5.85C10.4167 5.28333 11.1 5 11.9 5H29.25L39 14.75V40.1C39 40.9 38.7167 41.5833 38.15 42.15C37.5833 42.7167 36.9 43 36.1 43H11.9ZM28.15 15.75V7.25H11.9C11.7333 7.25 11.5833 7.31667 11.45 7.45C11.3167 7.58333 11.25 7.73333 11.25 7.9V40.1C11.25 40.2667 11.3167 40.4167 11.45 40.55C11.5833 40.6833 11.7333 40.75 11.9 40.75H36.1C36.2667 40.75 36.4167 40.6833 36.55 40.55C36.6833 40.4167 36.75 40.2667 36.75 40.1V15.75H28.15Z" fill="#151523"/>
</g>
<path d="M23.55 37.05C24.0167 37.05 24.4083 36.8917 24.725 36.575C25.0417 36.2583 25.2 35.8667 25.2 35.4C25.2 34.9333 25.0417 34.5417 24.725 34.225C24.4083 33.9083 24.0167 33.75 23.55 33.75C23.0833 33.75 22.6917 33.9083 22.375 34.225C22.0583 34.5417 21.9 34.9333 21.9 35.4C21.9 35.8667 22.0583 36.2583 22.375 36.575C22.6917 36.8917 23.0833 37.05 23.55 37.05ZM22.45 30.65H24.5C24.5 29.85 24.65 29.175 24.95 28.625C25.25 28.075 25.85 27.35 26.75 26.45C27.55 25.65 28.125 24.9 28.475 24.2C28.825 23.5 29 22.7333 29 21.9C29 20.5 28.5083 19.3333 27.525 18.4C26.5417 17.4667 25.2667 17 23.7 17C22.4 17 21.25 17.3417 20.25 18.025C19.25 18.7083 18.5 19.6167 18 20.75L19.85 21.5C20.2167 20.7 20.7083 20.0917 21.325 19.675C21.9417 19.2583 22.6833 19.05 23.55 19.05C24.6833 19.05 25.5333 19.325 26.1 19.875C26.6667 20.425 26.95 21.1 26.95 21.9C26.95 22.5667 26.7667 23.2083 26.4 23.825C26.0333 24.4417 25.4333 25.1667 24.6 26C23.7333 26.9 23.1583 27.6583 22.875 28.275C22.5917 28.8917 22.45 29.6833 22.45 30.65Z" fill="#151523"/>
</svg>
