<svg width="48" height="48" viewBox="0 0 48 48" fill="none" xmlns="http://www.w3.org/2000/svg">
<mask id="mask0_559_3477" style="mask-type:alpha" maskUnits="userSpaceOnUse" x="0" y="0" width="48" height="48">
<rect width="48" height="48" fill="#D9D9D9"/>
</mask>
<g mask="url(#mask0_559_3477)">
<path d="M27.1492 17.5001C26.8159 17.5001 26.5409 17.3918 26.3242 17.1751C26.1076 16.9584 25.9992 16.6834 25.9992 16.3501C25.9992 16.0501 26.1076 15.7918 26.3242 15.5751C26.5409 15.3584 26.8159 15.2501 27.1492 15.2501H41.8992C42.1992 15.2501 42.4576 15.3584 42.6742 15.5751C42.8909 15.7918 42.9992 16.0668 42.9992 16.4001C42.9992 16.7334 42.8909 17.0001 42.6742 17.2001C42.4576 17.4001 42.1992 17.5001 41.8992 17.5001H27.1492ZM27.1492 32.7501C26.8159 32.7501 26.5409 32.6418 26.3242 32.4251C26.1076 32.2084 25.9992 31.9334 25.9992 31.6001C25.9992 31.2668 26.1076 31.0001 26.3242 30.8001C26.5409 30.6001 26.8159 30.5001 27.1492 30.5001H41.8992C42.1992 30.5001 42.4576 30.6084 42.6742 30.8251C42.8909 31.0418 42.9992 31.3168 42.9992 31.6501C42.9992 31.9501 42.8909 32.2084 42.6742 32.4251C42.4576 32.6418 42.1992 32.7501 41.8992 32.7501H27.1492ZM10.3992 20.1501L5.79922 15.5501C5.56589 15.3168 5.44922 15.0501 5.44922 14.7501C5.44922 14.4501 5.56589 14.2001 5.79922 14.0001C6.03255 13.7668 6.29922 13.6501 6.59922 13.6501C6.89922 13.6501 7.16589 13.7668 7.39922 14.0001L11.3492 17.9501L19.3992 9.9001C19.6326 9.7001 19.8992 9.6001 20.1992 9.6001C20.4992 9.6001 20.7659 9.71676 20.9992 9.9501C21.2326 10.1834 21.3492 10.4501 21.3492 10.7501C21.3492 11.0501 21.2326 11.3168 20.9992 11.5501L12.3992 20.1501C12.0992 20.4501 11.7576 20.6001 11.3742 20.6001C10.9909 20.6001 10.6659 20.4501 10.3992 20.1501ZM10.3992 35.4001L5.79922 30.8001C5.56589 30.5668 5.44922 30.3001 5.44922 30.0001C5.44922 29.7001 5.56589 29.4334 5.79922 29.2001C6.03255 28.9668 6.29922 28.8584 6.59922 28.8751C6.89922 28.8918 7.16589 29.0001 7.39922 29.2001L11.3492 33.2001L19.3992 25.1501C19.6326 24.9501 19.8992 24.8501 20.1992 24.8501C20.4992 24.8501 20.7659 24.9668 20.9992 25.2001C21.2326 25.4334 21.3492 25.7001 21.3492 26.0001C21.3492 26.3001 21.2326 26.5668 20.9992 26.8001L12.3992 35.4001C12.0992 35.6668 11.7576 35.8001 11.3742 35.8001C10.9909 35.8001 10.6659 35.6668 10.3992 35.4001Z" fill="url(#paint0_linear_559_3477)"/>
</g>
<defs>
<linearGradient id="paint0_linear_559_3477" x1="5.44922" y1="26.9108" x2="43.0096" y2="26.6726" gradientUnits="userSpaceOnUse">
<stop stop-color="#D9297D"/>
<stop offset="1" stop-color="#F18520"/>
</linearGradient>
</defs>
</svg>
