<svg width="48" height="48" viewBox="0 0 48 48" fill="none" xmlns="http://www.w3.org/2000/svg">
<mask id="mask0_559_3483" style="mask-type:alpha" maskUnits="userSpaceOnUse" x="0" y="0" width="48" height="48">
<rect width="48" height="48" fill="#D9D9D9"/>
</mask>
<g mask="url(#mask0_559_3483)">
<path d="M21.75 31.35L17.55 27.15C17.45 27.05 17.3417 26.975 17.225 26.925C17.1083 26.875 16.9833 26.85 16.85 26.85C16.7167 26.85 16.5833 26.875 16.45 26.925C16.3167 26.975 16.2 27.0667 16.1 27.2C15.9 27.4 15.8 27.6417 15.8 27.925C15.8 28.2083 15.9 28.45 16.1 28.65L20.75 33.3C20.9167 33.4667 21.075 33.5833 21.225 33.65C21.375 33.7167 21.55 33.75 21.75 33.75C21.95 33.75 22.1333 33.7167 22.3 33.65C22.4667 33.5833 22.6167 33.4667 22.75 33.3L31.75 24.35C31.95 24.1167 32.05 23.8583 32.05 23.575C32.05 23.2917 31.95 23.05 31.75 22.85C31.55 22.65 31.3083 22.55 31.025 22.55C30.7417 22.55 30.4833 22.65 30.25 22.85L21.75 31.35ZM11.9 43C11.1 43 10.4167 42.7167 9.85 42.15C9.28333 41.5833 9 40.9 9 40.1V7.9C9 7.1 9.28333 6.41667 9.85 5.85C10.4167 5.28333 11.1 5 11.9 5H28.05C28.45 5 28.8333 5.08333 29.2 5.25C29.5667 5.41667 29.8833 5.61667 30.15 5.85L38.15 13.85C38.3833 14.1167 38.5833 14.4333 38.75 14.8C38.9167 15.1667 39 15.55 39 15.95V40.1C39 40.9 38.7167 41.5833 38.15 42.15C37.5833 42.7167 36.9 43 36.1 43H11.9ZM28.15 14.3V7.25H11.9C11.7333 7.25 11.5833 7.31667 11.45 7.45C11.3167 7.58333 11.25 7.73333 11.25 7.9V40.1C11.25 40.2667 11.3167 40.4167 11.45 40.55C11.5833 40.6833 11.7333 40.75 11.9 40.75H36.1C36.2667 40.75 36.4167 40.6833 36.55 40.55C36.6833 40.4167 36.75 40.2667 36.75 40.1V15.75H29.55C29.15 15.75 28.8167 15.6083 28.55 15.325C28.2833 15.0417 28.15 14.7 28.15 14.3Z" fill="url(#paint0_linear_559_3483)"/>
</g>
<defs>
<linearGradient id="paint0_linear_559_3483" x1="9" y1="30.1071" x2="39.0091" y2="30.0023" gradientUnits="userSpaceOnUse">
<stop stop-color="#D9297D"/>
<stop offset="1" stop-color="#F18520"/>
</linearGradient>
</defs>
</svg>
