<svg width="48" height="48" viewBox="0 0 48 48" fill="none" xmlns="http://www.w3.org/2000/svg">
<mask id="mask0_559_3480" style="mask-type:alpha" maskUnits="userSpaceOnUse" x="0" y="0" width="48" height="48">
<rect width="48" height="48" fill="#D9D9D9"/>
</mask>
<g mask="url(#mask0_559_3480)">
<path d="M17.3508 17.2999C17.0508 17.2999 16.7758 17.1749 16.5258 16.9249C16.2758 16.6749 16.1508 16.3999 16.1508 16.0999C16.1508 15.7332 16.2758 15.4332 16.5258 15.1999C16.7758 14.9666 17.0508 14.8499 17.3508 14.8499C17.7174 14.8499 18.0174 14.9666 18.2508 15.1999C18.4841 15.4332 18.6008 15.7332 18.6008 16.0999C18.6008 16.3999 18.4841 16.6749 18.2508 16.9249C18.0174 17.1749 17.7174 17.2999 17.3508 17.2999ZM11.6508 17.2999C11.3174 17.2999 11.0258 17.1749 10.7758 16.9249C10.5258 16.6749 10.4008 16.3999 10.4008 16.0999C10.4008 15.7332 10.5258 15.4332 10.7758 15.1999C11.0258 14.9666 11.3174 14.8499 11.6508 14.8499C11.9841 14.8499 12.2674 14.9666 12.5008 15.1999C12.7341 15.4332 12.8508 15.7332 12.8508 16.0999C12.8508 16.3999 12.7341 16.6749 12.5008 16.9249C12.2674 17.1749 11.9841 17.2999 11.6508 17.2999ZM30.6508 33.1499C30.3174 33.1499 30.0258 33.0332 29.7758 32.7999C29.5258 32.5666 29.4008 32.2666 29.4008 31.8999C29.4008 31.5666 29.5258 31.2832 29.7758 31.0499C30.0258 30.8166 30.3174 30.6999 30.6508 30.6999C30.9841 30.6999 31.2674 30.8166 31.5008 31.0499C31.7341 31.2832 31.8508 31.5666 31.8508 31.8999C31.8508 32.2332 31.7341 32.5249 31.5008 32.7749C31.2674 33.0249 30.9841 33.1499 30.6508 33.1499ZM33.1008 22.6499C32.9008 22.4499 32.8008 22.1916 32.8008 21.8749C32.8008 21.5582 32.9008 21.2999 33.1008 21.0999L37.0008 17.1999H23.0008C22.6674 17.1999 22.3924 17.0999 22.1758 16.8999C21.9591 16.6999 21.8508 16.4332 21.8508 16.0999C21.8508 15.7666 21.9591 15.4916 22.1758 15.2749C22.3924 15.0582 22.6674 14.9499 23.0008 14.9499H36.9508L33.1008 11.0999C32.8674 10.8666 32.7508 10.5999 32.7508 10.2999C32.7508 9.9999 32.8674 9.73324 33.1008 9.4999C33.3341 9.26657 33.6008 9.1499 33.9008 9.1499C34.2008 9.1499 34.4674 9.26657 34.7008 9.4999L40.2508 15.0499C40.4174 15.2166 40.5341 15.3832 40.6008 15.5499C40.6674 15.7166 40.7008 15.8999 40.7008 16.0999C40.7008 16.2666 40.6674 16.4332 40.6008 16.5999C40.5341 16.7666 40.4341 16.9166 40.3008 17.0499L34.7008 22.6499C34.4674 22.8832 34.2008 22.9999 33.9008 22.9999C33.6008 22.9999 33.3341 22.8832 33.1008 22.6499ZM13.3008 38.4999L7.75078 32.9499C7.58411 32.7832 7.46745 32.6166 7.40078 32.4499C7.33411 32.2832 7.30078 32.0999 7.30078 31.8999C7.30078 31.7332 7.33411 31.5666 7.40078 31.3999C7.46745 31.2332 7.58411 31.0666 7.75078 30.8999L13.3008 25.3499C13.5341 25.1166 13.8008 24.9999 14.1008 24.9999C14.4008 24.9999 14.6674 25.1166 14.9008 25.3499C15.1008 25.5832 15.2091 25.8499 15.2258 26.1499C15.2424 26.4499 15.1341 26.7166 14.9008 26.9499L11.0508 30.7999H25.0008C25.3341 30.7999 25.6091 30.8999 25.8258 31.0999C26.0424 31.2999 26.1508 31.5666 26.1508 31.8999C26.1508 32.2332 26.0424 32.5082 25.8258 32.7249C25.6091 32.9416 25.3341 33.0499 25.0008 33.0499H11.0508L14.9008 36.8999C15.1341 37.1332 15.2508 37.3999 15.2508 37.6999C15.2508 37.9999 15.1341 38.2666 14.9008 38.4999C14.6674 38.7332 14.4008 38.8499 14.1008 38.8499C13.8008 38.8499 13.5341 38.7332 13.3008 38.4999ZM36.3508 33.1499C36.0508 33.1499 35.7758 33.0332 35.5258 32.7999C35.2758 32.5666 35.1508 32.2666 35.1508 31.8999C35.1508 31.5666 35.2758 31.2832 35.5258 31.0499C35.7758 30.8166 36.0508 30.6999 36.3508 30.6999C36.7174 30.6999 37.0174 30.8166 37.2508 31.0499C37.4841 31.2832 37.6008 31.5666 37.6008 31.8999C37.6008 32.2332 37.4841 32.5249 37.2508 32.7749C37.0174 33.0249 36.7174 33.1499 36.3508 33.1499Z" fill="url(#paint0_linear_559_3480)"/>
</g>
<defs>
<linearGradient id="paint0_linear_559_3480" x1="7.30078" y1="28.7731" x2="40.7105" y2="28.6069" gradientUnits="userSpaceOnUse">
<stop stop-color="#D9297D"/>
<stop offset="1" stop-color="#F18520"/>
</linearGradient>
</defs>
</svg>
