<svg width="34" height="34" viewBox="0 0 34 34" fill="none" xmlns="http://www.w3.org/2000/svg">
<path d="M0 33.75V30.9375H5.625V33.75H0ZM0 25.7812V22.9688H15V25.7812H0ZM0 18.2812V15.4688H33.75V18.2812H0ZM0 10.7812V7.96875H15V10.7812H0ZM0 2.8125V0H5.625V2.8125H0ZM9.375 33.75V30.9375H15V33.75H9.375ZM9.375 2.8125V0H15V2.8125H9.375ZM18.9844 33.75V30.9375H24.375V33.75H18.9844ZM18.9844 25.7812V22.9688H33.75V25.7812H18.9844ZM18.75 10.7812V7.96875H33.75V10.7812H18.75ZM18.75 2.8125V0H24.375V2.8125H18.75ZM28.125 33.75V30.9375H33.75V33.75H28.125ZM28.125 2.8125V0H33.75V2.8125H28.125Z" fill="url(#paint0_linear_580_7014)"/>
<defs>
<linearGradient id="paint0_linear_580_7014" x1="-1.19475e-08" y1="22.2991" x2="33.76" y2="22.1497" gradientUnits="userSpaceOnUse">
<stop stop-color="#D9297D"/>
<stop offset="1" stop-color="#F18520"/>
</linearGradient>
</defs>
</svg>
