<svg width="21" height="22" viewBox="0 0 21 22" fill="none" xmlns="http://www.w3.org/2000/svg">
<path fill-rule="evenodd" clip-rule="evenodd" d="M2.29587 21.3313H18.367C19.635 21.3313 20.6629 20.3034 20.6629 19.0354V2.96433C20.6629 1.69635 19.635 0.668457 18.367 0.668457H2.29587C1.0279 0.668457 0 1.69635 0 2.96433V19.0354C0 20.3034 1.0279 21.3313 2.29587 21.3313Z" fill="#007EBB"/>
<path fill-rule="evenodd" clip-rule="evenodd" d="M17.7904 18.4615H14.7241V13.239C14.7241 11.8071 14.18 11.007 13.0467 11.007C11.8138 11.007 11.1697 11.8397 11.1697 13.239V18.4615H8.21466V8.51272H11.1697V9.85282C11.1697 9.85282 12.0582 8.20877 14.1694 8.20877C16.2796 8.20877 17.7904 9.49741 17.7904 12.1626V18.4615ZM4.68935 7.21001C3.68281 7.21001 2.86719 6.38799 2.86719 5.37417C2.86719 4.36036 3.68281 3.53833 4.68935 3.53833C5.69589 3.53833 6.51103 4.36036 6.51103 5.37417C6.51103 6.38799 5.69589 7.21001 4.68935 7.21001ZM3.16351 18.4615H6.24482V8.51272H3.16351V18.4615Z" fill="white"/>
</svg>
