<svg width="40" height="40" viewBox="0 0 40 40" fill="none" xmlns="http://www.w3.org/2000/svg">
<path d="M1.06926 11.2289V1.20482H3.98542V6.31325C5.67031 4.35341 7.67112 2.81124 9.98785 1.68675C12.3046 0.562249 14.759 0 17.3512 0C22.2438 0 26.4075 1.67068 29.842 5.01205C33.2766 8.35341 34.9939 12.4337 34.9939 17.253V17.7349H32.0778V17.1084C32.0778 13.1245 30.6359 9.75904 27.7521 7.01205C24.8684 4.26506 21.4014 2.89157 17.3512 2.89157C15.1478 2.89157 13.0822 3.38956 11.1543 4.38554C9.22641 5.38153 7.54961 6.69879 6.12394 8.33735H11.2272V11.2289H1.06926ZM0 17.3012H2.91616C2.91616 21.3173 4.30944 24.739 7.09599 27.5663C9.88254 30.3936 13.3009 31.8072 17.3512 31.8072H17.9344L19.5869 34.5542C19.2305 34.6185 18.8659 34.6586 18.4933 34.6747C18.1207 34.6908 17.74 34.6988 17.3512 34.6988C12.5233 34.6988 8.42446 33.004 5.05468 29.6145C1.68489 26.2249 0 22.1205 0 17.3012ZM21.3852 23.0361L16.0875 17.8795V7.56627H19.0036V16.6747L22.9405 20.4819L21.3852 23.0361ZM29.8906 40L29.4046 36.8193C28.8214 36.6586 28.2706 36.4418 27.7521 36.1687C27.2337 35.8956 26.7477 35.5341 26.294 35.0843L23.6209 35.6627L22.4058 33.6386L24.6902 31.5181C24.593 31.1325 24.5443 30.7309 24.5443 30.3133C24.5443 29.8956 24.593 29.494 24.6902 29.1084L22.4058 26.988L23.6209 24.9639L26.294 25.5422C26.7477 25.0924 27.2337 24.7309 27.7521 24.4578C28.2706 24.1847 28.8214 23.9679 29.4046 23.8072L29.8906 20.6265H32.5152L33.0012 23.8072C33.5844 23.9679 34.1353 24.1847 34.6537 24.4578C35.1721 24.7309 35.6582 25.0924 36.1118 25.5422L38.7849 24.9639L40 26.988L37.7157 29.1084C37.8129 29.494 37.8615 29.8956 37.8615 30.3133C37.8615 30.7309 37.8129 31.1325 37.7157 31.5181L40 33.6386L38.7849 35.6627L36.1118 35.0843C35.6582 35.5341 35.1721 35.8956 34.6537 36.1687C34.1353 36.4418 33.5844 36.6586 33.0012 36.8193L32.5152 40H29.8906ZM31.2029 34.1687C32.3694 34.1687 33.309 33.8153 34.0219 33.1084C34.7347 32.4016 35.0911 31.4699 35.0911 30.3133C35.0911 29.1566 34.7347 28.2249 34.0219 27.5181C33.309 26.8112 32.3694 26.4578 31.2029 26.4578C30.0364 26.4578 29.0968 26.8112 28.384 27.5181C27.6711 28.2249 27.3147 29.1566 27.3147 30.3133C27.3147 31.4699 27.6711 32.4016 28.384 33.1084C29.0968 33.8153 30.0364 34.1687 31.2029 34.1687Z" fill="url(#paint0_linear_580_7023)"/>
<defs>
<linearGradient id="paint0_linear_580_7023" x1="-1.41599e-08" y1="26.4286" x2="40.0119" y2="26.2515" gradientUnits="userSpaceOnUse">
<stop stop-color="#D9297D"/>
<stop offset="1" stop-color="#F18520"/>
</linearGradient>
</defs>
</svg>
