<svg width="806" height="177" viewBox="0 0 806 177" fill="none" xmlns="http://www.w3.org/2000/svg">
<path d="M586 155.032V153H573V155.032H586ZM586 160V157.968H573V160H586Z" fill="#693B2D"/>
<path fill-rule="evenodd" clip-rule="evenodd" d="M756.943 92.1378C805.44 71.1005 819.176 49.2389 787.253 31.485C755.33 13.731 683.583 3.32964 592.967 0.942572C502.379 -1.44376 393.189 4.19231 286.916 18.4398C180.643 32.6874 97.5394 52.8314 49.0573 73.8622C0.560173 94.8995 -13.1759 116.761 18.7468 134.515C50.6695 152.269 122.417 162.67 213.033 165.057C303.621 167.444 412.811 161.808 519.084 147.56C625.357 133.313 708.461 113.169 756.943 92.1378ZM740.553 89.1805C786.82 69.1105 799.915 48.2581 769.47 31.3261C739.025 14.3939 670.594 4.47136 584.145 2.19405C497.724 -0.0825147 393.551 5.29428 292.159 18.8875C190.767 32.4807 111.483 51.6992 65.2306 71.7626C18.9635 91.8326 5.86794 112.685 36.3129 129.617C66.758 146.549 135.189 156.472 221.639 158.749C308.06 161.026 412.232 155.649 513.624 142.056C615.016 128.462 694.301 109.244 740.553 89.1805ZM743.106 89.6197C696.51 109.832 616.765 129.146 514.954 142.796C413.142 156.445 308.411 161.863 221.349 159.569C134.315 157.277 64.6828 147.265 33.6048 129.98C2.52671 112.696 16.097 91.5293 62.6775 71.3234C109.273 51.111 189.018 31.797 290.83 18.1476C392.641 4.4981 497.372 -0.919817 584.434 1.37364C671.469 3.66635 741.1 13.6785 772.178 30.9627C803.256 48.2469 789.686 69.4138 743.106 89.6197ZM722.602 85.9703C766.421 66.9625 778.813 47.2183 749.991 31.1886C721.168 15.1588 656.378 5.76198 574.504 3.60519C492.658 1.44915 393.994 6.54126 297.961 19.416C201.928 32.2908 126.838 50.4931 83.0345 69.4943C39.2161 88.5021 26.8237 108.246 55.6462 124.276C84.4687 140.306 149.259 149.703 231.133 151.859C312.979 154.015 411.642 148.923 507.675 136.049C603.709 123.174 678.799 104.972 722.602 85.9703ZM725.155 86.4095C681.008 105.56 605.457 123.858 509.005 136.789C412.552 149.72 313.331 154.853 230.843 152.68C148.384 150.508 82.3936 141.021 52.9381 124.639C23.4825 108.258 36.3496 88.1989 80.4815 69.0551C124.628 49.9049 200.179 31.6071 296.632 18.6761C393.085 5.74509 492.306 0.611851 574.793 2.78478C657.252 4.95697 723.243 14.4434 752.699 30.8252C782.154 47.207 769.287 67.2658 725.155 86.4095ZM706.327 83.5112C747.987 65.4398 759.759 46.6724 732.367 31.4382C704.975 16.2038 643.394 7.27046 565.553 5.21992C487.741 3.17012 393.934 8.01127 302.625 20.2527C211.316 32.4941 139.923 49.8006 98.278 67.8655C56.618 85.937 44.8456 104.704 72.2378 119.939C99.6301 135.173 161.211 144.106 239.051 146.157C316.864 148.207 410.671 143.365 501.98 131.124C593.289 118.883 664.682 101.576 706.327 83.5112ZM708.88 83.9504C666.892 102.164 595.038 119.566 503.309 131.864C411.581 144.162 317.216 149.044 238.762 146.977C160.336 144.911 97.5549 135.888 69.5297 120.302C41.5044 104.716 53.7515 85.6337 95.7249 67.4263C137.713 49.2124 209.567 31.8104 301.296 19.5128C393.024 7.21509 487.389 2.33282 565.843 4.39951C644.269 6.46545 707.05 15.4885 735.075 31.0748C763.101 46.6611 750.853 65.743 708.88 83.9504ZM691.054 81.1994C730.612 64.0397 741.781 46.2234 715.782 31.7637C689.782 17.3039 631.327 8.82177 557.413 6.87467C483.527 4.92832 394.449 9.52512 307.74 21.1499C221.03 32.7746 153.237 49.2089 113.694 66.3622C74.1355 83.5219 62.9667 101.338 88.9662 115.798C114.966 130.258 173.421 138.74 247.335 140.687C321.221 142.633 410.299 138.036 497.008 126.412C583.718 114.787 651.511 98.3527 691.054 81.1994ZM693.607 81.6386C653.721 98.9409 585.466 115.471 498.338 127.152C411.209 138.833 321.573 143.471 247.046 141.507C172.547 139.545 112.891 130.973 86.2581 116.161C59.6254 101.349 71.269 83.2187 111.141 65.9229C151.027 48.6207 219.281 32.0909 306.41 20.4099C393.539 8.72894 483.175 4.09102 557.702 6.05426C632.201 8.01676 691.857 16.5885 718.49 31.4003C745.122 46.2122 733.479 64.3429 693.607 81.6386ZM677.268 79.4426C714.938 63.1015 725.565 46.1394 700.816 32.3752C676.067 18.6109 620.418 10.534 550.031 8.67978C479.671 6.82632 394.84 11.2037 312.261 22.2747C229.682 33.3456 165.122 48.9967 127.466 65.3312C89.7948 81.6723 79.168 98.6344 103.917 112.399C128.666 126.163 184.315 134.24 254.702 136.094C325.062 137.947 409.894 133.57 492.472 122.499C575.051 111.428 639.612 95.7771 677.268 79.4426ZM679.821 79.8818C641.821 96.3653 576.8 112.112 493.802 123.239C410.803 134.366 325.413 138.785 254.413 136.914C183.44 135.045 126.591 126.878 101.209 112.762C75.8268 98.6457 86.9283 81.3691 124.913 64.892C162.912 48.4085 227.933 32.662 310.932 21.5348C393.93 10.4075 479.32 5.98902 550.32 7.85937C621.293 9.72898 678.142 17.8955 703.524 32.0118C728.906 46.1281 717.805 63.4047 679.821 79.8818ZM788.607 31.3033C853.086 67.1632 732.714 119.379 519.749 147.93C306.784 176.481 81.8712 170.557 17.3927 134.697C-47.0857 98.8368 73.2864 46.6212 286.251 18.0699C499.216 -10.4814 724.129 -4.55664 788.607 31.3033Z" fill="url(#paint0_linear_1720_262)"/>
<g filter="url(#filter0_b_1720_262)">
<path d="M669.12 118.214V116.31L662.874 112.81L669.12 109.31V107.405L660 112.571V113.048L669.12 118.214Z" fill="#2FCEFF"/>
<path d="M670.852 124H672.657L679.568 102H677.763L670.852 124Z" fill="#2FCEFF"/>
<path d="M681.88 118.214L691 113.048V112.571L681.88 107.405V109.31L688.126 112.81L681.88 116.31V118.214Z" fill="#2FCEFF"/>
</g>
<g filter="url(#filter1_b_1720_262)">
<path d="M85 149L75 143.264V142.736L85 137V139.115L78.151 143L85 146.885V149Z" fill="#B76240"/>
</g>
<g filter="url(#filter2_b_1720_262)">
<path d="M124 149L114 143.264V142.736L124 137V139.115L117.151 143L124 146.885V149Z" fill="#B76240"/>
</g>
<path d="M248.999 162.219V160.465C248.999 160.257 248.846 160.131 248.655 160.185L246.808 160.7L243.648 161.578V160.293C243.648 160.085 243.495 159.959 243.304 160.012L238.476 161.358C238.285 161.411 238.131 161.623 238.131 161.831V163.766H238.125L238.12 171.754C237.619 171.685 237.036 171.725 236.415 171.899C234.53 172.424 233 173.953 233 175.312C233 176.672 234.526 177.347 236.413 176.822C238.239 176.313 239.725 174.863 239.819 173.538L239.824 173.463C239.824 173.444 239.824 173.426 239.824 173.406C239.824 173.387 239.824 173.372 239.824 173.354L239.83 163.908L241.602 163.413L243.484 162.89V164.177C243.484 164.385 243.636 164.51 243.827 164.457L247.295 163.489L247.29 170.68C246.789 170.61 246.206 170.651 245.585 170.825C243.7 171.351 242.17 172.879 242.17 174.238C242.17 175.598 243.696 176.273 245.583 175.747C247.409 175.239 248.895 173.789 248.989 172.463L248.994 172.389C248.994 172.37 248.994 172.352 248.994 172.333C248.994 172.314 248.994 172.297 248.994 172.279L249 162.217L248.999 162.219Z" fill="#EA794D"/>
<path d="M469.23 139.908L464.303 141.318C464.11 141.374 463.949 141.251 463.947 141.046L463.914 138.898C463.911 138.691 464.066 138.48 464.26 138.425L469.186 137.014C469.38 136.957 469.541 137.081 469.543 137.285L469.575 139.433C469.579 139.64 469.423 139.851 469.23 139.906V139.908Z" fill="#E4794D"/>
<path d="M465.827 150.438L464.087 150.935L463.934 140.809L465.673 140.313L465.827 150.438Z" fill="#E4794D"/>
<path d="M463.355 153.362C465.197 152.458 466.238 150.804 465.681 149.668C465.123 148.532 463.177 148.344 461.335 149.249C459.493 150.153 458.452 151.807 459.01 152.943C459.568 154.079 461.513 154.267 463.355 153.362Z" fill="#E4794D"/>
<defs>
<filter id="filter0_b_1720_262" x="590" y="32" width="171" height="162" filterUnits="userSpaceOnUse" color-interpolation-filters="sRGB">
<feFlood flood-opacity="0" result="BackgroundImageFix"/>
<feGaussianBlur in="BackgroundImageFix" stdDeviation="35"/>
<feComposite in2="SourceAlpha" operator="in" result="effect1_backgroundBlur_1720_262"/>
<feBlend mode="normal" in="SourceGraphic" in2="effect1_backgroundBlur_1720_262" result="shape"/>
</filter>
<filter id="filter1_b_1720_262" x="5" y="67" width="150" height="152" filterUnits="userSpaceOnUse" color-interpolation-filters="sRGB">
<feFlood flood-opacity="0" result="BackgroundImageFix"/>
<feGaussianBlur in="BackgroundImageFix" stdDeviation="35"/>
<feComposite in2="SourceAlpha" operator="in" result="effect1_backgroundBlur_1720_262"/>
<feBlend mode="normal" in="SourceGraphic" in2="effect1_backgroundBlur_1720_262" result="shape"/>
</filter>
<filter id="filter2_b_1720_262" x="44" y="67" width="150" height="152" filterUnits="userSpaceOnUse" color-interpolation-filters="sRGB">
<feFlood flood-opacity="0" result="BackgroundImageFix"/>
<feGaussianBlur in="BackgroundImageFix" stdDeviation="35"/>
<feComposite in2="SourceAlpha" operator="in" result="effect1_backgroundBlur_1720_262"/>
<feBlend mode="normal" in="SourceGraphic" in2="effect1_backgroundBlur_1720_262" result="shape"/>
</filter>
<linearGradient id="paint0_linear_1720_262" x1="222" y1="166" x2="513.541" y2="-187.928" gradientUnits="userSpaceOnUse">
<stop stop-color="#FF8652"/>
<stop offset="0.244792" stop-color="#CA48F8"/>
<stop offset="0.547242" stop-color="#9551FF"/>
<stop offset="0.765625" stop-color="#2FCEFF"/>
<stop offset="0.989583" stop-color="#151523" stop-opacity="0"/>
</linearGradient>
</defs>
</svg>
