<svg width="25" height="24" viewBox="0 0 25 24" fill="none" xmlns="http://www.w3.org/2000/svg">
<path d="M12.6426 23.9785C19.2581 23.9785 24.6211 18.6156 24.6211 12C24.6211 5.38445 19.2581 0.0214844 12.6426 0.0214844C6.02703 0.0214844 0.664062 5.38445 0.664062 12C0.664062 18.6156 6.02703 23.9785 12.6426 23.9785Z" fill="#FF4500"/>
<path d="M20.6357 11.9999C20.6381 12.164 20.6178 12.3278 20.5746 12.4862C20.5315 12.6447 20.4662 12.7965 20.3806 12.9366C20.2952 13.0768 20.1904 13.2043 20.0694 13.3154C19.9485 13.4265 19.8125 13.52 19.6655 13.5931C19.6688 13.6368 19.6714 13.6808 19.6729 13.7248C19.6766 13.8126 19.6766 13.9005 19.6729 13.9883C19.6714 14.0324 19.6688 14.0764 19.6655 14.1201C19.6655 16.8033 16.5391 18.9834 12.682 18.9834C8.8249 18.9834 5.69851 16.8033 5.69851 14.1201C5.69521 14.0764 5.69252 14.0324 5.69102 13.9883C5.68742 13.9005 5.68742 13.8126 5.69102 13.7248C5.69252 13.6808 5.69521 13.6368 5.69851 13.5931C5.46815 13.4872 5.26355 13.3325 5.09886 13.1397C4.93418 12.947 4.81334 12.7207 4.74472 12.4767C4.67621 12.2325 4.66162 11.9763 4.70195 11.7259C4.74228 11.4756 4.83658 11.237 4.9783 11.0267C5.1199 10.8164 5.30555 10.6394 5.52237 10.5081C5.7392 10.3767 5.98201 10.2941 6.23395 10.266C6.48592 10.2378 6.74102 10.2647 6.98157 10.3448C7.22213 10.425 7.44237 10.5565 7.62705 10.7302C7.96988 10.4978 8.32908 10.2905 8.70182 10.11C9.07465 9.92972 9.46006 9.7764 9.85505 9.65182C10.25 9.52724 10.6537 9.43171 11.0625 9.36553C11.4713 9.29935 11.8845 9.26312 12.2987 9.25683L13.1851 5.10028C13.195 5.05207 13.2144 5.00655 13.2423 4.96582C13.2698 4.9254 13.3055 4.89066 13.3465 4.86401C13.3878 4.83735 13.4339 4.81909 13.4824 4.8101C13.5307 4.80142 13.5804 4.80232 13.6283 4.8128L16.563 5.39974C16.8592 4.89096 17.4809 4.67295 18.0298 4.88497C18.5787 5.09699 18.8925 5.67645 18.7698 6.25202C18.6473 6.82758 18.1244 7.22886 17.5369 7.19862C16.949 7.16837 16.4702 6.71558 16.4073 6.13043L13.8439 5.5914L13.0653 9.3287C13.4744 9.33738 13.8825 9.37571 14.2862 9.44309C15.0946 9.57784 15.8793 9.82858 16.616 10.1876C16.984 10.3666 17.3386 10.572 17.677 10.8021C17.9204 10.5684 18.2262 10.4102 18.5574 10.3466C18.8887 10.2827 19.2314 10.3161 19.5442 10.4427C19.8569 10.5693 20.1264 10.7836 20.3201 11.0599C20.5138 11.3362 20.6234 11.6627 20.6357 11.9999ZM8.74824 13.6562C8.80873 13.8015 8.89677 13.9335 9.00817 14.0446C9.11927 14.156 9.25134 14.2441 9.39658 14.3046C9.54195 14.3647 9.69774 14.3956 9.85505 14.3956C10.3396 14.3956 10.7762 14.1036 10.9619 13.6562C11.1472 13.2085 11.0445 12.6935 10.7019 12.3509C10.3593 12.0083 9.84427 11.9056 9.39658 12.0909C8.94918 12.2766 8.6572 12.7132 8.6572 13.1978C8.6572 13.355 8.68805 13.5107 8.74824 13.6562ZM15.6089 16.5317C15.6703 16.4718 15.7054 16.39 15.7066 16.3044C15.7078 16.2184 15.6745 16.1358 15.6146 16.0744C15.5547 16.013 15.473 15.978 15.3873 15.9768C15.3014 15.9756 15.2187 16.0088 15.1496 16.0606C14.9694 16.1898 14.7787 16.3035 14.5794 16.4005C14.3801 16.4976 14.1729 16.5776 13.9601 16.6398C13.7475 16.7018 13.5298 16.7458 13.3097 16.7713C13.0893 16.7967 12.8674 16.8033 12.646 16.7913C12.425 16.8012 12.2034 16.7922 11.9839 16.7647C11.7644 16.7374 11.5476 16.6913 11.3359 16.6269C11.1239 16.5628 10.9181 16.4808 10.7202 16.382C10.5223 16.2831 10.333 16.1675 10.1545 16.0367C10.0925 15.9858 10.0138 15.9597 9.93351 15.9636C9.85326 15.9675 9.77749 16.0013 9.7206 16.0579C9.664 16.1148 9.63016 16.1906 9.62626 16.2708C9.62237 16.3511 9.64842 16.4299 9.69933 16.4919C9.90986 16.6506 10.1336 16.7907 10.368 16.9111C10.6025 17.0315 10.8472 17.1312 11.0987 17.2097C11.3503 17.2881 11.6081 17.3447 11.8695 17.3792C12.131 17.4133 12.3948 17.425 12.658 17.4142C12.9213 17.425 13.1851 17.4133 13.4465 17.3792C13.9701 17.3103 14.478 17.152 14.948 16.9111C15.1825 16.7907 15.4062 16.6506 15.6167 16.4919L15.6089 16.5317ZM15.3891 14.4914C15.5514 14.4932 15.7125 14.4618 15.8626 14.3995C16.0126 14.3369 16.1483 14.2447 16.2615 14.1282C16.3747 14.0117 16.4627 13.8733 16.5208 13.7215C16.5789 13.5699 16.6055 13.408 16.599 13.2457C16.599 12.7611 16.307 12.3245 15.8596 12.1389C15.4119 11.9535 14.8968 12.0562 14.5542 12.3988C14.2116 12.7414 14.1089 13.2565 14.2943 13.7042C14.48 14.1515 14.9166 14.4435 15.4011 14.4435L15.3891 14.4914Z" fill="white"/>
</svg>
