<svg width="20" height="20" viewBox="0 0 20 20" fill="none" xmlns="http://www.w3.org/2000/svg">
<path d="M12.975 14.025C13.1083 14.1583 13.275 14.225 13.475 14.225C13.675 14.225 13.85 14.15 14 14C14.15 13.85 14.225 13.675 14.225 13.475C14.225 13.275 14.15 13.1 14 12.95L10.75 9.7V5.725C10.75 5.525 10.6793 5.35433 10.538 5.213C10.396 5.071 10.2167 5 10 5C9.78333 5 9.60433 5.071 9.463 5.213C9.321 5.35433 9.25 5.53333 9.25 5.75V9.925C9.25 10.0417 9.27067 10.154 9.312 10.262C9.354 10.3707 9.425 10.475 9.525 10.575L12.975 14.025ZM10 19.5C8.68333 19.5 7.446 19.25 6.288 18.75C5.12933 18.25 4.125 17.575 3.275 16.725C2.425 15.875 1.75 14.8707 1.25 13.712C0.75 12.554 0.5 11.3167 0.5 10C0.5 8.68333 0.75 7.44567 1.25 6.287C1.75 5.129 2.425 4.125 3.275 3.275C4.125 2.425 5.12933 1.75 6.288 1.25C7.446 0.75 8.68333 0.5 10 0.5C11.3167 0.5 12.5543 0.75 13.713 1.25C14.871 1.75 15.875 2.425 16.725 3.275C17.575 4.125 18.25 5.129 18.75 6.287C19.25 7.44567 19.5 8.68333 19.5 10C19.5 11.3167 19.25 12.554 18.75 13.712C18.25 14.8707 17.575 15.875 16.725 16.725C15.875 17.575 14.871 18.25 13.713 18.75C12.5543 19.25 11.3167 19.5 10 19.5ZM10 18C12.2167 18 14.1043 17.221 15.663 15.663C17.221 14.1043 18 12.2167 18 10C18 7.78333 17.221 5.89567 15.663 4.337C14.1043 2.779 12.2167 2 10 2C7.78333 2 5.896 2.779 4.338 4.337C2.77933 5.89567 2 7.78333 2 10C2 12.2167 2.77933 14.1043 4.338 15.663C5.896 17.221 7.78333 18 10 18Z" fill="#151523"/>
</svg>
