<svg width="14" height="14" viewBox="0 0 14 14" fill="none" xmlns="http://www.w3.org/2000/svg">
<path d="M2.92117 8.75277C2.92117 9.55749 2.27078 10.2079 1.46606 10.2079C0.661331 10.2079 0.0109375 9.55749 0.0109375 8.75277C0.0109375 7.94804 0.661331 7.29765 1.46606 7.29765H2.92117V8.75277ZM3.64873 8.75277C3.64873 7.94804 4.29913 7.29765 5.10385 7.29765C5.90858 7.29765 6.55897 7.94804 6.55897 8.75277V12.3906C6.55897 13.1953 5.90858 13.8457 5.10385 13.8457C4.29913 13.8457 3.64873 13.1953 3.64873 12.3906V8.75277Z" fill="#E01E5A"/>
<path d="M5.10394 2.91024C4.29921 2.91024 3.64882 2.25984 3.64882 1.45512C3.64882 0.650394 4.29921 0 5.10394 0C5.90866 0 6.55906 0.650394 6.55906 1.45512V2.91024H5.10394ZM5.10394 3.64882C5.90866 3.64882 6.55906 4.29921 6.55906 5.10394C6.55906 5.90866 5.90866 6.55906 5.10394 6.55906H1.45512C0.650394 6.55906 0 5.90866 0 5.10394C0 4.29921 0.650394 3.64882 1.45512 3.64882H5.10394Z" fill="#36C5F0"/>
<path d="M10.9349 5.10394C10.9349 4.29921 11.5853 3.64882 12.39 3.64882C13.1948 3.64882 13.8452 4.29921 13.8452 5.10394C13.8452 5.90866 13.1948 6.55906 12.39 6.55906H10.9349V5.10394ZM10.2074 5.10394C10.2074 5.90866 9.55698 6.55906 8.75225 6.55906C7.94753 6.55906 7.29714 5.90866 7.29714 5.10394V1.45512C7.29714 0.650394 7.94753 0 8.75225 0C9.55698 0 10.2074 0.650394 10.2074 1.45512V5.10394Z" fill="#2EB67D"/>
<path d="M8.75225 10.9354C9.55698 10.9354 10.2074 11.5858 10.2074 12.3906C10.2074 13.1953 9.55698 13.8457 8.75225 13.8457C7.94753 13.8457 7.29714 13.1953 7.29714 12.3906V10.9354H8.75225ZM8.75225 10.2079C7.94753 10.2079 7.29714 9.55749 7.29714 8.75277C7.29714 7.94804 7.94753 7.29765 8.75225 7.29765H12.4011C13.2058 7.29765 13.8562 7.94804 13.8562 8.75277C13.8562 9.55749 13.2058 10.2079 12.4011 10.2079H8.75225Z" fill="#ECB22E"/>
</svg>
