<svg width="16" height="16" viewBox="0 0 16 16" fill="none" xmlns="http://www.w3.org/2000/svg">
<g clip-path="url(#clip0_552_3501)">
<path d="M3.42755 10.079C3.42755 10.9987 2.68424 11.742 1.76455 11.742C0.84487 11.742 0.101562 10.9987 0.101562 10.079C0.101562 9.15932 0.84487 8.41602 1.76455 8.41602H3.42755V10.079ZM4.25904 10.079C4.25904 9.15932 5.00235 8.41602 5.92204 8.41602C6.84172 8.41602 7.58503 9.15932 7.58503 10.079V14.2365C7.58503 15.1562 6.84172 15.8995 5.92204 15.8995C5.00235 15.8995 4.25904 15.1562 4.25904 14.2365V10.079Z" fill="white"/>
<path d="M5.91901 3.40167C4.99932 3.40167 4.25602 2.65836 4.25602 1.73868C4.25602 0.818991 4.99932 0.0756836 5.91901 0.0756836C6.83869 0.0756836 7.582 0.818991 7.582 1.73868V3.40167H5.91901ZM5.91901 4.24576C6.83869 4.24576 7.582 4.98907 7.582 5.90875C7.582 6.82844 6.83869 7.57175 5.91901 7.57175H1.74893C0.829245 7.57175 0.0859375 6.82844 0.0859375 5.90875C0.0859375 4.98907 0.829245 4.24576 1.74893 4.24576H5.91901Z" fill="white"/>
<path d="M12.5872 5.90875C12.5872 4.98907 13.3305 4.24576 14.2502 4.24576C15.1698 4.24576 15.9132 4.98907 15.9132 5.90875C15.9132 6.82844 15.1698 7.57175 14.2502 7.57175H12.5872V5.90875ZM11.7557 5.90875C11.7557 6.82844 11.0124 7.57175 10.0927 7.57175C9.17299 7.57175 8.42969 6.82844 8.42969 5.90875V1.73868C8.42969 0.818991 9.17299 0.0756836 10.0927 0.0756836C11.0124 0.0756836 11.7557 0.818991 11.7557 1.73868V5.90875Z" fill="white"/>
<path d="M10.0927 12.5735C11.0124 12.5735 11.7557 13.3168 11.7557 14.2365C11.7557 15.1562 11.0124 15.8995 10.0927 15.8995C9.17299 15.8995 8.42969 15.1562 8.42969 14.2365V12.5735H10.0927ZM10.0927 11.742C9.17299 11.742 8.42969 10.9987 8.42969 10.079C8.42969 9.15932 9.17299 8.41602 10.0927 8.41602H14.2628C15.1824 8.41602 15.9258 9.15932 15.9258 10.079C15.9258 10.9987 15.1824 11.742 14.2628 11.742H10.0927Z" fill="white"/>
</g>
<defs>
<clipPath id="clip0_552_3501">
<rect width="16" height="16" fill="white"/>
</clipPath>
</defs>
</svg>
