<svg width="16" height="15" viewBox="0 0 16 15" fill="none" xmlns="http://www.w3.org/2000/svg">
<path d="M4.69147 12.6777L7.99977 10.3086L11.3081 12.6777L10.0675 8.77193L13.169 6.72301H9.30931L7.99977 2.75323L6.69024 6.72301H2.83055L5.93208 8.77193L4.69147 12.6777ZM7.99977 11.9414L3.82993 14.8867C3.69208 14.972 3.54872 15.0092 3.39985 14.9981C3.25006 14.9878 3.10624 14.9507 2.96839 14.8867C2.85352 14.8226 2.76162 14.7266 2.6927 14.5985C2.62378 14.4705 2.62378 14.3318 2.6927 14.1824L4.27793 9.31618L0.314854 6.65899C0.154033 6.57361 0.0566213 6.46178 0.0226193 6.32347C-0.0123018 6.18432 -0.00678781 6.04004 0.0391609 5.89064C0.108084 5.76258 0.199982 5.65587 0.314854 5.5705C0.429725 5.48513 0.567571 5.44244 0.728391 5.44244H5.72531L7.31054 0.480215C7.37947 0.330815 7.47136 0.213429 7.58624 0.128057C7.70111 0.0426857 7.83895 0 7.99977 0C8.16059 0 8.29844 0.0426857 8.41331 0.128057C8.52818 0.213429 8.62008 0.330815 8.689 0.480215L10.2742 5.44244H15.2712C15.432 5.44244 15.5698 5.48513 15.6847 5.5705C15.7996 5.65587 15.8915 5.76258 15.9604 5.89064C16.0063 6.04004 16.0123 6.18432 15.9783 6.32347C15.9434 6.46178 15.8455 6.57361 15.6847 6.65899L11.7216 9.31618L13.3069 14.1824C13.3758 14.3318 13.3758 14.4705 13.3069 14.5985C13.2379 14.7266 13.146 14.8226 13.0312 14.8867C12.8933 14.9507 12.75 14.9878 12.6011 14.9981C12.4513 15.0092 12.3075 14.972 12.1696 14.8867L7.99977 11.9414Z" fill="url(#paint0_linear_407_3141)"/>
<defs>
<linearGradient id="paint0_linear_407_3141" x1="-5.66398e-09" y1="9.91071" x2="16.0047" y2="9.83518" gradientUnits="userSpaceOnUse">
<stop stop-color="#D9297D"/>
<stop offset="1" stop-color="#F18520"/>
</linearGradient>
</defs>
</svg>
