<svg width="24" height="24" viewBox="0 0 24 24" fill="none" xmlns="http://www.w3.org/2000/svg">
<mask id="mask0_161_4736" style="mask-type:alpha" maskUnits="userSpaceOnUse" x="0" y="0" width="24" height="24">
<rect width="24" height="24" fill="#D9D9D9"/>
</mask>
<g mask="url(#mask0_161_4736)">
<path d="M8.69147 16.6777L11.9998 14.3086L15.3081 16.6777L14.0675 12.7719L17.169 10.723H13.3093L11.9998 6.75323L10.6902 10.723H6.83055L9.93208 12.7719L8.69147 16.6777ZM11.9998 15.9414L7.82993 18.8867C7.69208 18.972 7.54872 19.0092 7.39985 18.9981C7.25006 18.9878 7.10624 18.9507 6.96839 18.8867C6.85352 18.8226 6.76162 18.7266 6.6927 18.5985C6.62378 18.4705 6.62378 18.3318 6.6927 18.1824L8.27793 13.3162L4.31485 10.659C4.15403 10.5736 4.05662 10.4618 4.02262 10.3235C3.9877 10.1843 3.99321 10.04 4.03916 9.89064C4.10808 9.76258 4.19998 9.65587 4.31485 9.5705C4.42973 9.48513 4.56757 9.44244 4.72839 9.44244H9.72531L11.3105 4.48022C11.3795 4.33081 11.4714 4.21343 11.5862 4.12806C11.7011 4.04269 11.839 4 11.9998 4C12.1606 4 12.2984 4.04269 12.4133 4.12806C12.5282 4.21343 12.6201 4.33081 12.689 4.48022L14.2742 9.44244H19.2712C19.432 9.44244 19.5698 9.48513 19.6847 9.5705C19.7996 9.65587 19.8915 9.76258 19.9604 9.89064C20.0063 10.04 20.0123 10.1843 19.9783 10.3235C19.9434 10.4618 19.8455 10.5736 19.6847 10.659L15.7216 13.3162L17.3069 18.1824C17.3758 18.3318 17.3758 18.4705 17.3069 18.5985C17.2379 18.7266 17.146 18.8226 17.0312 18.8867C16.8933 18.9507 16.75 18.9878 16.6011 18.9981C16.4513 19.0092 16.3075 18.972 16.1696 18.8867L11.9998 15.9414Z" fill="white"/>
</g>
</svg>
