<svg width="15" height="12" viewBox="0 0 15 12" fill="none" xmlns="http://www.w3.org/2000/svg">
<path d="M13.4644 2.98737C13.4735 3.11756 13.4735 3.24775 13.4735 3.37914C13.4735 7.38269 10.3778 12 4.71725 12V11.9976C3.04509 12 1.40768 11.5284 0 10.6393C0.243144 10.6681 0.487508 10.6825 0.73248 10.6831C2.11822 10.6843 3.46435 10.2265 4.55454 9.38356C3.23766 9.35897 2.08288 8.51362 1.67946 7.2795C2.14077 7.36709 2.61609 7.34909 3.06886 7.2273C1.63315 6.94172 0.600244 5.6998 0.600244 4.25749V4.21909C1.02803 4.45368 1.50701 4.58387 1.99695 4.59827C0.644729 3.70852 0.22791 1.93744 1.04449 0.552723C2.60695 2.4456 4.91225 3.59633 7.38696 3.71812C7.13894 2.66579 7.47776 1.56306 8.27727 0.823306C9.51676 -0.323822 11.4662 -0.265026 12.6313 0.954697C13.3205 0.820906 13.9811 0.571921 14.5856 0.219144C14.3559 0.920499 13.8751 1.51626 13.2328 1.89484C13.8428 1.82404 14.4388 1.66325 15 1.41787C14.5868 2.02743 14.0664 2.5584 13.4644 2.98737Z" fill="#1D9BF0"/>
</svg>
